<?xml version="1.0" encoding="UTF-8"?>
<svg width="112px" height="222px" viewBox="0 0 112 222" version="1.1" xmlns="http://www.w3.org/2000/svg" xmlns:xlink="http://www.w3.org/1999/xlink">
    <!-- Generator: Sketch 49.2 (51160) - http://www.bohemiancoding.com/sketch -->
    <title>bubbles</title>
    <desc>Created with Sketch.</desc>
    <defs></defs>
    <g id="Page-1" stroke="none" stroke-width="1" fill="none" fill-rule="evenodd">
        <g id="Artboard" transform="translate(-133.000000, -9.000000)" stroke="#979797" stroke-width="2">
            <path d="M188,204.5 C188,194.835017 180.164983,187 170.5,187 M169,230 C182.807119,230 194,218.807119 194,205 C194,191.192881 182.807119,180 169,180 C155.192881,180 144,191.192881 144,205 C144,218.807119 155.192881,230 169,230 Z M182.5,36.75 C182.5,26.1185186 173.881481,17.5 163.25,17.5 M161.5,65 C176.687831,65 189,52.6878306 189,37.5 C189,22.3121694 176.687831,10 161.5,10 C146.312169,10 134,22.3121694 134,37.5 C134,52.6878306 146.312169,65 161.5,65 Z M239,140 C239,132.268014 232.731986,126 225,126 M224,160 C235.045695,160 244,151.045695 244,140 C244,128.954305 235.045695,120 224,120 C212.954305,120 204,128.954305 204,140 C204,151.045695 212.954305,160 224,160 Z M173,150 C181.284271,150 188,143.284271 188,135 C188,126.715729 181.284271,120 173,120 C164.715729,120 158,126.715729 158,135 C158,143.284271 164.715729,150 173,150 Z M217,201 C222.522847,201 227,196.522847 227,191 C227,185.477153 222.522847,181 217,181 C211.477153,181 207,185.477153 207,191 C207,196.522847 211.477153,201 217,201 Z M150.5,105 C154.642136,105 158,101.642136 158,97.5 C158,93.3578644 154.642136,90 150.5,90 C146.357864,90 143,93.3578644 143,97.5 C143,101.642136 146.357864,105 150.5,105 Z M215.5,105 C225.164983,105 233,97.1649831 233,87.5 C233,77.8350169 225.164983,70 215.5,70 C205.835017,70 198,77.8350169 198,87.5 C198,97.1649831 205.835017,105 215.5,105 Z" id="bubbles"></path>
        </g>
    </g>
</svg>