<?xml version="1.0" encoding="UTF-8"?>
<svg width="938px" height="330px" viewBox="0 0 938 330" version="1.1" xmlns="http://www.w3.org/2000/svg" xmlns:xlink="http://www.w3.org/1999/xlink">
    <title>facets</title>
    <g id="Page-1" stroke="none" stroke-width="1" fill="none" fill-rule="evenodd">
        <g id="facets" transform="translate(2.000000, 2.000000)" stroke="#D1D1D1" stroke-width="3">
            <path d="M2.61147156,109.317447 L169.858919,152.196507 L307.217051,52.7619314 L140.266728,10 L2.61147156,109.317447 Z M1.11174475,110.013267 L0,271.273683 L169.022701,314.859002 L169.022701,152.640776 M309,51.7415905 L309,212.816793 L170.068733,315" id="Combined-Shape"></path>
            <path d="M394.999475,81.91522 L508.047258,164.863284 L620,83.931642 L508.047258,3 L394.999475,81.91522 Z M394,81.93064 L394.999475,240.943593 L508.047258,320.847112 L508.047258,164.863284 M620,83.931642 L616.854297,246.258689 L508.86379,322" id="Combined-Shape"></path>
            <path d="M708.999475,82.916332 L822.047258,164.863014 L933.000525,83.932242 L822.047258,0 L708.999475,82.916332 Z M708,82.931752 L709.998949,244.944465 L821.047783,324.847124 L822.047258,165.863504 M934,84.932732 L932.853247,246.257543 L821.864315,326 M710.719588,244.773431 L819.945964,164.480626 L823.795869,164.480626 L931.986548,246.431946 M822.16875,163.871607 L822.16875,2.4319535" id="Combined-Shape"></path>
        </g>
    </g>
</svg>