<?xml version="1.0" encoding="UTF-8"?>
<svg width="154px" height="75px" viewBox="0 0 154 75" version="1.1" xmlns="http://www.w3.org/2000/svg" xmlns:xlink="http://www.w3.org/1999/xlink">
    <!-- Generator: Sketch 49.2 (51160) - http://www.bohemiancoding.com/sketch -->
    <title>fish</title>
    <desc>Created with Sketch.</desc>
    <defs></defs>
    <g id="Page-1" stroke="none" stroke-width="1" fill="none" fill-rule="evenodd">
        <g id="Artboard" transform="translate(-825.000000, -348.000000)" stroke="#979797" stroke-width="2">
            <path d="M978.440051,387.648468 C978.440051,372.912292 956.173112,359.772469 950.254043,359.772469 C931.85006,359.772469 857.170534,382.032555 855.714981,382.032555 C854.259428,382.032555 830.634928,356.918947 829.187039,358 C828.221779,358.720702 829.8261,368.544819 834,387.472352 C830.04137,403.953904 828.437049,412.501374 829.187039,413.11476 C830.312024,414.03484 852.821839,393.050149 855.917861,393.050149 C859.013882,393.050149 939.97929,417.330861 953.396186,417.330861 C961.264324,417.330861 978.440051,402.384643 978.440051,387.648468 Z M919.977876,388 C907.338608,394.398035 900.730088,397.273615 900.152314,396.626743 C899.57454,395.97987 900.640525,393.104289 903.350268,388 M926.158178,363.733882 C912.837937,353.425264 905.671229,348.666414 904.658055,349.457333 C903.644882,350.248252 904.347819,356.429223 906.766866,368.000247 M959.076495,385.812592 C961.477093,386.45583 964.060486,384.598749 964.846666,381.664686 C965.632846,378.730622 964.324102,375.830646 961.923505,375.187408 C959.522907,374.54417 956.939514,376.401251 956.153334,379.335314 C955.367154,382.269378 956.675898,385.169354 959.076495,385.812592 Z M975.656016,397.379413 C958.617264,395.07726 950.781211,393.926184 952.147857,393.926184 C952.147857,393.926184 959.98391,395.07726 975.656016,397.379413 Z" id="fish" transform="translate(903.677570, 383.351828) rotate(5.000000) translate(-903.677570, -383.351828) "></path>
        </g>
    </g>
</svg>