<?xml version="1.0" encoding="UTF-8"?>
<svg width="980px" height="541px" viewBox="0 0 980 541" version="1.1" xmlns="http://www.w3.org/2000/svg" xmlns:xlink="http://www.w3.org/1999/xlink">
    <title>gestalt</title>
    <g id="Page-1" stroke="none" stroke-width="1" fill="none" fill-rule="evenodd">
        <g id="gestalt" transform="translate(2.000000, 0.000000)">
            <path d="M90.9839678,447.173395 C73.3668111,439.74833 61,422.318377 61,402 C61,374.938047 82.9380473,353 110,353 C137.061953,353 159,374.938047 159,402 C159,422.003575 147.013429,439.207537 129.831076,446.821097 L110.5,410 L90.9839678,447.173395 Z M64,498 L99.6363251,498 C96.6778466,522.231644 76.0307155,541 51,541 C23.9380473,541 2,519.061953 2,492 C2,464.938047 23.9380473,443 51,443 C64.428368,443 76.5951138,448.401647 85.4459225,457.150625 L64,498 Z M120.363675,498 L157,498 L135.216623,456.507853 C144.007291,448.137843 155.903642,443 169,443 C196.061953,443 218,464.938047 218,492 C218,519.061953 196.061953,541 169,541 C143.969284,541 123.322153,522.231644 120.363675,498 Z" id="Combined-Shape" fill="#F1F1F1" fill-rule="nonzero"></path>
            <line x1="806.5" y1="125.5" x2="976.5" y2="125.5" id="Line-2" stroke="#F1F1F1" stroke-width="3" stroke-linecap="square"></line>
            <g id="proximity" transform="translate(0.000000, 49.000000)" stroke="#F1F1F1" stroke-width="3">
                <circle id="Oval-4" cx="18" cy="18" r="18"></circle>
                <circle id="Oval-4" cx="82" cy="18" r="18"></circle>
                <circle id="Oval-4" cx="146" cy="18" r="18"></circle>
                <circle id="Oval-4" cx="210" cy="18" r="18"></circle>
                <circle id="Oval-4" cx="18" cy="62" r="18"></circle>
                <circle id="Oval-4" cx="82" cy="62" r="18"></circle>
                <circle id="Oval-4" cx="146" cy="62" r="18"></circle>
                <circle id="Oval-4" cx="210" cy="62" r="18"></circle>
                <circle id="Oval-4" cx="18" cy="106" r="18"></circle>
                <circle id="Oval-4" cx="82" cy="106" r="18"></circle>
                <circle id="Oval-4" cx="146" cy="106" r="18"></circle>
                <circle id="Oval-4" cx="210" cy="106" r="18"></circle>
                <circle id="Oval-4" cx="18" cy="150" r="18"></circle>
                <circle id="Oval-4" cx="82" cy="150" r="18"></circle>
                <circle id="Oval-4" cx="146" cy="150" r="18"></circle>
                <circle id="Oval-4" cx="210" cy="150" r="18"></circle>
            </g>
            <text id="Proximity" fill="#D1D1D1" fill-rule="nonzero" font-family="Helvetica" font-size="32" font-weight="normal">
                <tspan x="35.820625" y="31">Proximity</tspan>
            </text>
            <text id="Similarity" fill="#D1D1D1" fill-rule="nonzero" font-family="Helvetica" font-size="32" font-weight="normal">
                <tspan x="444.606917" y="31">Similarity</tspan>
            </text>
            <text id="Continuity" fill="#D1D1D1" fill-rule="nonzero" font-family="Helvetica" font-size="32" font-weight="normal">
                <tspan x="808.830917" y="31">Continuity</tspan>
            </text>
            <text id="Closure" fill="#D1D1D1" fill-rule="nonzero" font-family="Helvetica" font-size="32" font-weight="normal">
                <tspan x="51.9920417" y="332">Closure</tspan>
            </text>
            <text id="Area" fill="#D1D1D1" fill-rule="nonzero" font-family="Helvetica" font-size="32" font-weight="normal">
                <tspan x="484.945167" y="332">Area</tspan>
            </text>
            <text id="Symmetry" fill="#D1D1D1" fill-rule="nonzero" font-family="Helvetica" font-size="32" font-weight="normal">
                <tspan x="809.786333" y="332">Symmetry</tspan>
            </text>
            <g id="Group" transform="translate(437.000000, 49.000000)" stroke="#F1F1F1" stroke-width="3">
                <circle id="Oval-4" cx="18" cy="18" r="18"></circle>
                <circle id="Oval-4" cx="60" cy="18" r="18"></circle>
                <circle id="Oval-4" cx="106" cy="18" r="18"></circle>
                <circle id="Oval-4" cx="150" cy="18" r="18"></circle>
                <circle id="Oval-4" fill="#7D7E93" fill-rule="nonzero" cx="18" cy="62" r="18"></circle>
                <circle id="Oval-4" fill="#7D7E93" fill-rule="nonzero" cx="60" cy="62" r="18"></circle>
                <circle id="Oval-4" fill="#7D7E93" fill-rule="nonzero" cx="106" cy="62" r="18"></circle>
                <circle id="Oval-4" fill="#7D7E93" fill-rule="nonzero" cx="150" cy="62" r="18"></circle>
                <circle id="Oval-4" cx="18" cy="106" r="18"></circle>
                <circle id="Oval-4" cx="60" cy="106" r="18"></circle>
                <circle id="Oval-4" cx="106" cy="106" r="18"></circle>
                <circle id="Oval-4" cx="150" cy="106" r="18"></circle>
                <circle id="Oval-4" fill="#7D7E93" fill-rule="nonzero" cx="18" cy="150" r="18"></circle>
                <circle id="Oval-4" fill="#7D7E93" fill-rule="nonzero" cx="60" cy="150" r="18"></circle>
                <circle id="Oval-4" fill="#7D7E93" fill-rule="nonzero" cx="106" cy="150" r="18"></circle>
                <circle id="Oval-4" fill="#7D7E93" fill-rule="nonzero" cx="150" cy="150" r="18"></circle>
            </g>
            <line x1="890.5" y1="53.5" x2="890.5" y2="209.5" id="Line" stroke="#F1F1F1" stroke-width="3" stroke-linecap="square"></line>
            <rect id="Rectangle-6" stroke="#F1F1F1" stroke-width="3" transform="translate(889.000000, 412.000000) rotate(45.000000) translate(-889.000000, -412.000000) " x="848.5" y="371.5" width="81" height="81"></rect>
            <rect id="Rectangle-6" stroke="#F1F1F1" stroke-width="3" transform="translate(889.000000, 466.000000) rotate(45.000000) translate(-889.000000, -466.000000) " x="848.5" y="425.5" width="81" height="81"></rect>
            <rect id="Rectangle" stroke="#F1F1F1" stroke-width="3" x="410.5" y="351.5" width="211" height="181"></rect>
            <rect id="Rectangle" stroke="#F1F1F1" stroke-width="3" x="525.5" y="437.5" width="55" height="55"></rect>
        </g>
    </g>
</svg>