<?xml version="1.0" encoding="UTF-8"?>
<svg width="1024px" height="320px" viewBox="0 0 1024 320" version="1.1" xmlns="http://www.w3.org/2000/svg" xmlns:xlink="http://www.w3.org/1999/xlink">
    <!-- Generator: Sketch 49.3 (51167) - http://www.bohemiancoding.com/sketch -->
    <title>gradient</title>
    <desc>Created with Sketch.</desc>
    <defs></defs>
    <g id="gradient" stroke="none" stroke-width="1" fill="none" fill-rule="evenodd">
        <g id="Group" transform="translate(100.000000, 37.000000)" fill="#D8D8D8">
            <path d="M4.17203831,0.770648709 L12.1720383,4.16591707 C13.2802832,4.63626565 14,5.72357285 14,6.92749745 L14,246.618554 C14,247.947734 13.1253752,249.118454 11.850763,249.495393 L3.85076299,251.86122 C2.26192872,252.331083 0.59302448,251.423978 0.123161053,249.835144 C0.0414794164,249.558939 -1.74108339e-15,249.272411 -1.77635684e-15,248.984381 L-2.66453526e-15,3.53222909 C-2.86744138e-15,1.87537484 1.34314575,0.532229089 3,0.532229089 C3.4027221,0.532229089 3.80132183,0.613313467 4.17203831,0.770648709 Z" id="Rectangle-7"></path>
            <path d="M36.1282535,12.6755847 L44.1282535,15.9226423 C45.2597805,16.381909 46,17.481219 46,18.7023984 L46,235.882178 C46,237.149721 45.2033567,238.280486 44.0097737,238.70713 L36.0097737,241.566714 C34.4495955,242.124397 32.73273,241.311714 32.1750474,239.751535 C32.0592129,239.427476 32,239.085902 32,238.741762 L32,15.4553408 C32,13.7984865 33.3431458,12.4553408 35,12.4553408 C35.3867655,12.4553408 35.7698823,12.5301281 36.1282535,12.6755847 Z" id="Rectangle-7"></path>
            <path d="M66.1927412,22.8167079 L74.1927412,26.2830947 C75.2899134,26.7584976 76,27.8400565 76,29.0357967 L76,225.69869 C76,227.034796 75.1164028,228.209869 73.8328113,228.580777 L65.8328113,230.892466 C64.2410786,231.352415 62.577862,230.434923 62.117913,228.843191 C62.0396944,228.572502 62,228.292143 62,228.010379 L62,25.5694099 C62,23.9125556 63.3431458,22.5694099 65,22.5694099 C65.4103085,22.5694099 65.8162556,22.6535773 66.1927412,22.8167079 Z" id="Rectangle-7"></path>
            <path d="M98.2701339,33.9955564 L106.270134,37.7341866 C107.325555,38.2274152 108,39.2870619 108,40.452046 L108,214.98225 C108,216.257957 107.193222,217.394139 105.988801,217.814612 L97.9888006,220.607477 C96.4245304,221.153577 94.7137377,220.328186 94.1676382,218.763916 C94.0566711,218.446057 94,218.111787 94,217.775115 L94,36.7134158 C94,35.0565616 95.3431458,33.7134158 97,33.7134158 C97.4389197,33.7134158 97.8724932,33.8097275 98.2701339,33.9955564 Z" id="Rectangle-7"></path>
            <path d="M128.709258,42.9025264 L136.709258,44.8490642 C138.053686,45.1761866 139,46.3803652 139,47.7640175 L139,204.737096 C139,206.076537 138.112068,207.253695 136.824163,207.621668 L128.824163,209.907382 C127.231058,210.362555 125.570601,209.440078 125.115428,207.846973 C125.03885,207.578949 125,207.30156 125,207.02281 L125,45.8174797 C125,44.1606255 126.343146,42.8174797 128,42.8174797 C128.238963,42.8174797 128.47707,42.846031 128.709258,42.9025264 Z" id="Rectangle-7"></path>
            <path d="M160.181758,53.792182 L168.181758,57.2207534 C169.284809,57.6934898 170,58.7781041 170,59.9781885 L170,193.145898 C170,194.282214 169.357993,195.321004 168.341641,195.82918 L160.341641,199.82918 C158.859705,200.570147 157.057686,199.969474 156.316718,198.487539 C156.108435,198.070973 156,197.611633 156,197.145898 L156,56.549617 C156,54.8927628 157.343146,53.549617 159,53.549617 C159.40628,53.549617 159.808327,53.6321403 160.181758,53.792182 Z" id="Rectangle-7"></path>
            <path d="M193.341641,64.1708204 L201.341641,68.1708204 C202.357993,68.6789964 203,69.7177858 203,70.854102 L203,182.269307 C203,183.346543 202.422435,184.341081 201.4868,184.87496 L193.4868,189.439806 C192.047738,190.260943 190.215485,189.760016 189.394348,188.320954 C189.135917,187.868048 189,187.355603 189,186.834153 L189,66.854102 C189,65.1972477 190.343146,63.854102 192,63.854102 C192.465735,63.854102 192.925074,63.9625372 193.341641,64.1708204 Z" id="Rectangle-7"></path>
            <path d="M224.076937,75.5680528 L231.076937,78.2603605 C232.235513,78.7059667 233,79.8190821 233,81.0603973 L233,173.784276 C233,175.101291 232.141032,176.264298 230.882258,176.651613 L223.882258,178.805459 C222.298671,179.292717 220.61992,178.403966 220.132663,176.82038 C220.044715,176.53455 220,176.237176 220,175.938122 L220,78.3680896 C220,76.7112354 221.343146,75.3680896 223,75.3680896 C223.368209,75.3680896 223.733271,75.4358736 224.076937,75.5680528 Z" id="Rectangle-7"></path>
        </g>
        <g id="Group-2" transform="translate(689.000000, 39.000000)" fill="#D8D8D8">
            <path d="M5.90655192,1.12970118 L12.9257975,7.03759483 C13.6065015,7.61052346 13.9977823,8.45604157 13.993946,9.34575523 L13.0059166,238.487625 C13.0021594,239.358997 12.6197184,240.18568 11.95805,240.752689 L4.97789149,246.734254 C3.7197868,247.812372 1.82590404,247.666464 0.747785969,246.40836 C0.279231239,245.861582 0.0229743559,245.164514 0.0258092786,244.444443 L0.974751515,3.41311516 C0.981274513,1.75627375 2.32969779,0.418426346 3.9865392,0.424949344 C4.68933628,0.427716262 5.36885529,0.677137669 5.90655192,1.12970118 Z" id="Rectangle-7"></path>
            <path d="M37.5811282,23.8410688 L45.5811282,28.8024122 C46.4633341,29.3495279 47,30.3138424 47,31.3519285 L47,217.142132 C47,218.278184 46.3582878,219.31678 45.3422957,219.825086 L37.3422957,223.827527 C35.8605411,224.568857 34.0583755,223.968623 33.317046,222.486869 C33.1085505,222.070132 33,221.610556 33,221.144573 L33,26.3905851 C33,24.7337309 34.3431458,23.3905851 36,23.3905851 C36.5587085,23.3905851 37.1063161,23.5466055 37.5811282,23.8410688 Z" id="Rectangle-7"></path>
            <path d="M69.2413108,40.9791186 L76.2685723,44.2582426 C77.3248413,44.7511283 78,45.8112239 78,46.9768313 L78,202.105815 C78,203.239328 77.3611237,204.276056 76.3485971,204.785607 L68.3770346,208.797271 C66.8970262,209.54208 65.0934549,208.946084 64.3486453,207.466076 C64.1354504,207.042437 64.0257309,206.574289 64.0284882,206.100037 L64.9727892,43.6802657 C64.9824219,42.0234394 66.3333538,40.6881252 67.99018,40.6977579 C68.4226283,40.7002722 68.8494212,40.7962515 69.2413108,40.9791186 Z" id="Rectangle-7"></path>
            <path d="M99.9613857,51.3842309 L106.958722,53.8293171 C108.17775,54.2552831 108.98743,55.413516 108.968794,56.7046892 L107.026552,191.272859 C107.01026,192.401599 106.361722,193.425642 105.34827,193.922868 L99.3538854,196.86387 C97.8664146,197.593662 96.0689678,196.979442 95.3391757,195.491971 C95.1343982,195.074591 95.0294273,194.61533 95.0325474,194.150432 L95.9718378,54.1961743 C95.9829573,52.5393574 97.335087,51.2052561 98.991904,51.2163756 C99.3221001,51.2185917 99.6496651,51.2753061 99.9613857,51.3842309 Z" id="Rectangle-7"></path>
            <path d="M130.34922,61.3925401 L136.34922,62.0957606 C137.860634,62.2729035 139,63.5536062 139,65.0753655 L139,183.657671 C139,185.034274 138.063108,186.234223 136.727607,186.568098 L130.727607,188.068098 C129.120222,188.469944 127.491419,187.492662 127.089572,185.885278 C127.030082,185.647316 127,185.402956 127,185.157671 L127,64.372145 C127,62.7152907 128.343146,61.372145 130,61.372145 C130.116704,61.372145 130.233309,61.3789549 130.34922,61.3925401 Z" id="Rectangle-7"></path>
            <path d="M160.973334,69 L167,69 C168.656854,69 170,70.3431458 170,72 L170,178 C170,179.656854 168.656854,181 167,181 L160.026905,181 C158.370051,181 157.026905,179.656854 157.026905,178 C157.026905,177.991072 157.026945,177.982143 157.027025,177.973215 L157.973453,71.9732154 C157.988153,70.3268773 159.32693,69 160.973334,69 Z" id="Rectangle-7"></path>
            <path d="M193.536656,74.6430284 L198.536656,75.5521193 C199.963128,75.8114779 201,77.0538706 201,78.5037291 L201,172.505209 C201,173.956215 199.961527,175.199245 198.533663,175.457361 L193.533663,176.361216 C191.903235,176.65595 190.342582,175.573156 190.047848,173.942727 C190.016013,173.766623 190,173.588023 190,173.409064 L190,77.5946382 C190,75.9377839 191.343146,74.5946382 193,74.5946382 C193.179975,74.5946382 193.359585,74.6108335 193.536656,74.6430284 Z" id="Rectangle-7"></path>
            <path d="M224.032085,78 L231,78 C232.656854,78 234,79.3431458 234,81 L234,169 C234,170.656854 232.656854,172 231,172 L224.968255,172 C223.32385,172 221.985917,170.676225 221.968425,169.031913 L221.032254,81.0319131 C221.014629,79.3751526 222.343411,78.0177949 224.000172,78.0001697 C224.010809,78.0000566 224.021447,78 224.032085,78 Z" id="Rectangle-7"></path>
        </g>
    </g>
</svg>