<?xml version="1.0" encoding="UTF-8"?>
<svg width="1025px" height="320px" viewBox="0 0 1025 320" version="1.1" xmlns="http://www.w3.org/2000/svg" xmlns:xlink="http://www.w3.org/1999/xlink" style="background: #F1F1F1;">
    <!-- Generator: Sketch 49.3 (51167) - http://www.bohemiancoding.com/sketch -->
    <title>moire</title>
    <desc>Created with Sketch.</desc>
    <defs></defs>
    <g id="moire" stroke="none" stroke-width="1" fill="none" fill-rule="evenodd">
        <g id="Group" transform="translate(-182.000000, -56.000000)" fill="#25274D">
            <rect id="Rectangle-5" transform="translate(112.000000, 230.000000) rotate(-25.000000) translate(-112.000000, -230.000000) " x="106" y="-20" width="12" height="500"></rect>
            <rect id="Rectangle-5" transform="translate(135.000000, 230.000000) rotate(-25.000000) translate(-135.000000, -230.000000) " x="129" y="-20" width="12" height="500"></rect>
            <rect id="Rectangle-5" transform="translate(158.000000, 230.000000) rotate(-25.000000) translate(-158.000000, -230.000000) " x="152" y="-20" width="12" height="500"></rect>
            <rect id="Rectangle-5" transform="translate(181.000000, 230.000000) rotate(-25.000000) translate(-181.000000, -230.000000) " x="175" y="-20" width="12" height="500"></rect>
            <rect id="Rectangle-5" transform="translate(204.000000, 230.000000) rotate(-25.000000) translate(-204.000000, -230.000000) " x="198" y="-20" width="12" height="500"></rect>
            <rect id="Rectangle-5" transform="translate(227.000000, 230.000000) rotate(-25.000000) translate(-227.000000, -230.000000) " x="221" y="-20" width="12" height="500"></rect>
            <rect id="Rectangle-5" transform="translate(250.000000, 230.000000) rotate(-25.000000) translate(-250.000000, -230.000000) " x="244" y="-20" width="12" height="500"></rect>
            <rect id="Rectangle-5" transform="translate(273.000000, 230.000000) rotate(-25.000000) translate(-273.000000, -230.000000) " x="267" y="-20" width="12" height="500"></rect>
            <rect id="Rectangle-5" transform="translate(296.000000, 230.000000) rotate(-25.000000) translate(-296.000000, -230.000000) " x="290" y="-20" width="12" height="500"></rect>
            <rect id="Rectangle-5" transform="translate(319.000000, 230.000000) rotate(-25.000000) translate(-319.000000, -230.000000) " x="313" y="-20" width="12" height="500"></rect>
            <rect id="Rectangle-5" transform="translate(342.000000, 230.000000) rotate(-25.000000) translate(-342.000000, -230.000000) " x="336" y="-20" width="12" height="500"></rect>
            <rect id="Rectangle-5" transform="translate(365.000000, 230.000000) rotate(-25.000000) translate(-365.000000, -230.000000) " x="359" y="-20" width="12" height="500"></rect>
            <rect id="Rectangle-5" transform="translate(388.000000, 230.000000) rotate(-25.000000) translate(-388.000000, -230.000000) " x="382" y="-20" width="12" height="500"></rect>
            <rect id="Rectangle-5" transform="translate(411.000000, 230.000000) rotate(-25.000000) translate(-411.000000, -230.000000) " x="405" y="-20" width="12" height="500"></rect>
            <rect id="Rectangle-5" transform="translate(434.000000, 230.000000) rotate(-25.000000) translate(-434.000000, -230.000000) " x="428" y="-20" width="12" height="500"></rect>
            <rect id="Rectangle-5" transform="translate(457.000000, 230.000000) rotate(-25.000000) translate(-457.000000, -230.000000) " x="451" y="-20" width="12" height="500"></rect>
            <rect id="Rectangle-5" transform="translate(480.000000, 230.000000) rotate(-25.000000) translate(-480.000000, -230.000000) " x="474" y="-20" width="12" height="500"></rect>
            <rect id="Rectangle-5" transform="translate(503.000000, 230.000000) rotate(-25.000000) translate(-503.000000, -230.000000) " x="497" y="-20" width="12" height="500"></rect>
            <rect id="Rectangle-5" transform="translate(526.000000, 230.000000) rotate(-25.000000) translate(-526.000000, -230.000000) " x="520" y="-20" width="12" height="500"></rect>
            <rect id="Rectangle-5" transform="translate(549.000000, 230.000000) rotate(-25.000000) translate(-549.000000, -230.000000) " x="543" y="-20" width="12" height="500"></rect>
            <rect id="Rectangle-5" transform="translate(572.000000, 230.000000) rotate(-25.000000) translate(-572.000000, -230.000000) " x="566" y="-20" width="12" height="500"></rect>
            <rect id="Rectangle-5" transform="translate(595.000000, 230.000000) rotate(-25.000000) translate(-595.000000, -230.000000) " x="589" y="-20" width="12" height="500"></rect>
            <rect id="Rectangle-5" transform="translate(618.000000, 230.000000) rotate(-25.000000) translate(-618.000000, -230.000000) " x="612" y="-20" width="12" height="500"></rect>
            <rect id="Rectangle-5" transform="translate(641.000000, 230.000000) rotate(-25.000000) translate(-641.000000, -230.000000) " x="635" y="-20" width="12" height="500"></rect>
            <rect id="Rectangle-5" transform="translate(664.000000, 230.000000) rotate(-25.000000) translate(-664.000000, -230.000000) " x="658" y="-20" width="12" height="500"></rect>
            <rect id="Rectangle-5" transform="translate(687.000000, 230.000000) rotate(-25.000000) translate(-687.000000, -230.000000) " x="681" y="-20" width="12" height="500"></rect>
            <rect id="Rectangle-5" transform="translate(710.000000, 230.000000) rotate(-25.000000) translate(-710.000000, -230.000000) " x="704" y="-20" width="12" height="500"></rect>
            <rect id="Rectangle-5" transform="translate(733.000000, 230.000000) rotate(-25.000000) translate(-733.000000, -230.000000) " x="727" y="-20" width="12" height="500"></rect>
            <rect id="Rectangle-5" transform="translate(756.000000, 230.000000) rotate(-25.000000) translate(-756.000000, -230.000000) " x="750" y="-20" width="12" height="500"></rect>
            <rect id="Rectangle-5" transform="translate(779.000000, 230.000000) rotate(-25.000000) translate(-779.000000, -230.000000) " x="773" y="-20" width="12" height="500"></rect>
            <rect id="Rectangle-5" transform="translate(802.000000, 230.000000) rotate(-25.000000) translate(-802.000000, -230.000000) " x="796" y="-20" width="12" height="500"></rect>
            <rect id="Rectangle-5" transform="translate(825.000000, 230.000000) rotate(-25.000000) translate(-825.000000, -230.000000) " x="819" y="-20" width="12" height="500"></rect>
            <rect id="Rectangle-5" transform="translate(848.000000, 230.000000) rotate(-25.000000) translate(-848.000000, -230.000000) " x="842" y="-20" width="12" height="500"></rect>
            <rect id="Rectangle-5" transform="translate(871.000000, 230.000000) rotate(-25.000000) translate(-871.000000, -230.000000) " x="865" y="-20" width="12" height="500"></rect>
            <rect id="Rectangle-5" transform="translate(894.000000, 230.000000) rotate(-25.000000) translate(-894.000000, -230.000000) " x="888" y="-20" width="12" height="500"></rect>
            <rect id="Rectangle-5" transform="translate(917.000000, 230.000000) rotate(-25.000000) translate(-917.000000, -230.000000) " x="911" y="-20" width="12" height="500"></rect>
            <rect id="Rectangle-5" transform="translate(940.000000, 230.000000) rotate(-25.000000) translate(-940.000000, -230.000000) " x="934" y="-20" width="12" height="500"></rect>
            <rect id="Rectangle-5" transform="translate(963.000000, 230.000000) rotate(-25.000000) translate(-963.000000, -230.000000) " x="957" y="-20" width="12" height="500"></rect>
            <rect id="Rectangle-5" transform="translate(986.000000, 230.000000) rotate(-25.000000) translate(-986.000000, -230.000000) " x="980" y="-20" width="12" height="500"></rect>
            <rect id="Rectangle-5" transform="translate(1009.000000, 230.000000) rotate(-25.000000) translate(-1009.000000, -230.000000) " x="1003" y="-20" width="12" height="500"></rect>
            <rect id="Rectangle-5" transform="translate(1032.000000, 230.000000) rotate(-25.000000) translate(-1032.000000, -230.000000) " x="1026" y="-20" width="12" height="500"></rect>
            <rect id="Rectangle-5" transform="translate(1055.000000, 230.000000) rotate(-25.000000) translate(-1055.000000, -230.000000) " x="1049" y="-20" width="12" height="500"></rect>
            <rect id="Rectangle-5" transform="translate(1078.000000, 230.000000) rotate(-25.000000) translate(-1078.000000, -230.000000) " x="1072" y="-20" width="12" height="500"></rect>
            <rect id="Rectangle-5" transform="translate(1101.000000, 230.000000) rotate(-25.000000) translate(-1101.000000, -230.000000) " x="1095" y="-20" width="12" height="500"></rect>
            <rect id="Rectangle-5" transform="translate(1124.000000, 230.000000) rotate(-25.000000) translate(-1124.000000, -230.000000) " x="1118" y="-20" width="12" height="500"></rect>
            <rect id="Rectangle-5" transform="translate(1147.000000, 230.000000) rotate(-25.000000) translate(-1147.000000, -230.000000) " x="1141" y="-20" width="12" height="500"></rect>
            <rect id="Rectangle-5" transform="translate(1170.000000, 230.000000) rotate(-25.000000) translate(-1170.000000, -230.000000) " x="1164" y="-20" width="12" height="500"></rect>
            <rect id="Rectangle-5" transform="translate(1193.000000, 230.000000) rotate(-25.000000) translate(-1193.000000, -230.000000) " x="1187" y="-20" width="12" height="500"></rect>
            <rect id="Rectangle-5" transform="translate(1216.000000, 230.000000) rotate(-25.000000) translate(-1216.000000, -230.000000) " x="1210" y="-20" width="12" height="500"></rect>
            <rect id="Rectangle-5" transform="translate(1239.000000, 230.000000) rotate(-25.000000) translate(-1239.000000, -230.000000) " x="1233" y="-20" width="12" height="500"></rect>
            <rect id="Rectangle-5" transform="translate(1262.000000, 230.000000) rotate(-25.000000) translate(-1262.000000, -230.000000) " x="1256" y="-20" width="12" height="500"></rect>
            <rect id="Rectangle-5" transform="translate(1285.000000, 230.000000) rotate(-25.000000) translate(-1285.000000, -230.000000) " x="1279" y="-20" width="12" height="500"></rect>
            <rect id="Rectangle-5" transform="translate(1308.000000, 230.000000) rotate(-25.000000) translate(-1308.000000, -230.000000) " x="1302" y="-20" width="12" height="500"></rect>
        </g>
    </g>
</svg>