<svg width="73px" height="56px" xmlns="http://www.w3.org/2000/svg" xmlns:xlink="http://www.w3.org/1999/xlink">
  <g stroke="none" fill="none" fill-rule="evenodd" stroke-linecap="round">
    <g transform="translate(-885.000000, -199.000000)" stroke="#7D7E93">
      <path d="M956.646061,228.223875 C956.646061,237.869375 936.883465,257.729639 925.96533,250.978893 C923.108675,249.212607 915.653138,244.140536 908.206148,232.250887 M908.206148,224.464321 C915.181013,212.788364 922.522709,207.317803 925.96533,205.248789 C936.594073,198.860917 956.646061,218.578376 956.646061,228.223875 M908.206148,232.250887 C901.524256,237.608436 898.18331,240.28721 898.18331,240.28721 C898.18331,240.28721 888.848408,248.373175 888.55677,246.28062 C890.909694,240.954537 893.430991,232.598057 893.430991,227.702016 C893.430991,222.805975 890.112816,212.870624 886.436062,205.964017 C886.73311,203.804472 895.781873,210.087194 898.18331,213.511239 L908.206148,224.464321 M943.091007,227.131268 C944.594156,226.728501 945.206327,224.138986 944.458331,221.347425 C943.710334,218.555864 941.885421,216.619365 940.382273,217.022132 C938.879124,217.424899 938.266953,220.014414 939.01495,222.805975 C939.762946,225.597536 941.587859,227.534036 943.091007,227.131268 Z M955.259398,232.726247 L946.102161,236.678016 M926.508593,218.363953 C925.128185,223.93664 924.70478,227.681012 925.238378,229.597068 C925.771976,231.513124 928.279022,234.43801 932.759516,238.371724" transform="translate(921.541062, 228.175272) rotate(8.000000) translate(-921.541062, -228.175272) "></path>
    </g>
  </g>
</svg>
