<?xml version="1.0" encoding="UTF-8"?>
<svg width="1255px" height="32px" viewBox="0 0 1255 32" version="1.1" xmlns="http://www.w3.org/2000/svg" xmlns:xlink="http://www.w3.org/1999/xlink">
    <!-- Generator: Sketch 49.1 (51147) - http://www.bohemiancoding.com/sketch -->
    <title>wave</title>
    <desc>Created with Sketch.</desc>
    <defs></defs>
    <g id="Page-1" stroke="none" stroke-width="1" fill="none" fill-rule="evenodd" stroke-linecap="square">
        <g id="Artboard-Copy" transform="translate(-92.000000, -63.000000)" stroke="#000000" stroke-width="2">
            <path d="M813,64.9807327 C808.732913,57.6312491 852.3946,94 901.654312,94 C950.914025,94 993.455402,70.5976213 993.455402,64.9807327 C993.455402,59.3638441 1033.67155,94 1080.93605,94 C1128.20055,94 1174,71.5555034 1174,64.9807327 C1174,58.4059619 1220.30743,94 1261.13516,94 C1301.96289,94 1345.99993,70.5726764 1345.99993,64.9807327 M94,64.9807327 C119.5964,84.3269109 148.814504,94 181.654312,94 C230.914025,94 273.455402,70.8620366 273.455402,64.9807327 C273.455402,59.0994287 313.671552,94 360.936049,94 C408.200546,94 454,70.6924117 454,64.9807327 C454,59.2690536 500.307428,94 541.135161,94 C581.962894,94 625.999926,71.4158123 625.999926,64.9807327 C625.999926,58.545653 687.082575,94 723.638307,94 C748.008796,94 778.12936,84.3269109 814,64.9807327" id="wave"></path>
        </g>
    </g>
</svg>
