<?xml version="1.0" encoding="UTF-8"?>
<svg width="317px" height="231px" viewBox="0 0 317 231" version="1.1" xmlns="http://www.w3.org/2000/svg" xmlns:xlink="http://www.w3.org/1999/xlink">
    <!-- Generator: Sketch 49.2 (51160) - http://www.bohemiancoding.com/sketch -->
    <title>angler</title>
    <desc>Created with Sketch.</desc>
    <defs></defs>
    <g id="Page-1" stroke="none" stroke-width="1" fill="none" fill-rule="evenodd">
        <g id="Artboard" transform="translate(-78.000000, -178.000000)" stroke="#979797" stroke-width="2">
            <path d="M85.83383,309.138464 C86.6331381,308.780799 91.0549619,307.668194 99.0993016,305.800648 C99.2804908,292.677907 100.294919,286.116537 102.142587,286.116537 C103.990255,286.116537 106.312247,292.677907 109.108561,305.800648 L116.607716,305.800648 C117.447846,297.235665 118.792916,292.953173 120.642926,292.953173 C122.492936,292.953173 124.430044,297.235665 126.454252,305.800648 L135.575453,305.800648 C137.321614,299.902917 138.944239,296.954051 140.443326,296.954051 C141.942413,296.954051 143.423087,299.902917 144.885346,305.800648 L170.777511,305.800648 L163.846159,288.244221 C157.915924,288.340033 154.753192,287.630805 154.357963,286.116537 C153.962733,284.602268 156.227021,281.86923 161.150826,277.91742 L157.188322,269.179891 C147.56106,271.295457 142.747429,271.295457 142.747429,269.179891 C142.747429,267.064325 146.617607,264.376298 154.357963,261.115811 L151.512023,253.146949 C137.178458,257.305369 130.011676,258.110392 130.011676,255.562018 C130.011676,253.013644 135.989765,249.263795 147.945943,244.31247 C145.905545,234.963816 144.885346,230.289488 144.885346,230.289488 C145.931916,227.938667 156.908864,224.442155 177.816191,219.799952 C173.794253,200.545186 160.590524,189.951776 138.205005,188.01972 C115.819485,186.087665 103.79868,197.828306 102.142587,223.241642 C108.082592,226.954558 111.052594,231.394592 111.052594,236.561743 C111.052594,244.31247 106.186453,253.146949 95.9313761,253.146949 C85.6762993,253.146949 80,244.966876 80,236.561743 C80,228.15661 87.8439195,223.241642 90.6030293,223.241642 C90.6030293,221.753171 95.9642671,179 138.205005,179 C180.445742,179 188.159554,217.035174 190.680046,219.799952 C236.29298,223.241642 255.617105,251.516128 271.261338,274.235089 C286.90557,296.954051 309.65888,308.045096 322.043577,303.584941 C324.919665,302.549163 393.344255,247.634567 393.995301,248.684335 C394.646346,249.734104 327.433756,305.798098 328.156347,306.946114 C328.878938,308.09413 393.358964,276.753701 393.995301,277.91742 C394.631637,279.08114 329.925306,311.336471 329.925306,312.869798 C329.925306,314.403125 393.995301,312.179914 393.995301,313.499942 C393.995301,314.819969 329.925306,318.884131 329.925306,320.395 C329.925306,321.90587 393.995301,340.692754 393.995301,342.061812 C393.995301,343.430871 328.878938,326.184727 328.156347,327.243255 C327.433756,328.301783 393.995301,367.278546 393.995301,368.161871 C393.995301,369.045196 325.736027,332.685458 322.043577,330.826115 C305.972439,322.73345 281.62647,332.854696 274.411826,342.050993 C267.197182,351.24729 261.226111,370.875939 229.875767,395.473288 C205.60828,414.513456 161.939481,409.08404 140.443326,397.445162 C108.261274,380.020511 81.3918099,346.290709 85.83383,309.138464 Z M206.023267,301.580996 C205.04477,303.47605 235.254271,353.158636 235.254271,342.503919 C235.254271,331.849202 252.356755,328.821015 254.537347,325.763089 C256.717938,322.705162 250.088158,310.866097 257.364944,301.580996 C264.64173,292.295896 207.001765,299.685942 206.023267,301.580996 Z M394,249 C390,255.971288 388,261.814727 388,266.530315 C388,271.245903 390,274.944011 394,277.624637 C390,285.297048 388,292.03393 388,297.835284 C388,303.636639 390,308.58369 394,312.676439 C390,317.946207 388,323.016655 388,327.887782 C388,332.758908 390,337.446971 394,341.951972 C390,345.444515 388,349.363952 388,353.710284 C388,358.056615 390,362.819854 394,368 M207,302 L255,325 M208,302 L254,310 M208,302 L240,334 M95,240 C96.6568542,240 98,238.656854 98,237 C98,235.343146 96.6568542,234 95,234 C93.3431458,234 92,235.343146 92,237 C92,238.656854 93.3431458,240 95,240 Z M193.657016,258.183022 C199.156673,262.797782 206.296875,263.179085 206.957522,262.555353 C207.618169,261.931621 205.841664,254.830919 200.342007,250.216159 C194.84235,245.601399 187.689677,245.026941 187.041502,245.843828 C186.393327,246.660715 188.157359,253.568261 193.657016,258.183022 Z" id="angler" transform="translate(237.000000, 293.500000) scale(-1, 1) translate(-237.000000, -293.500000) "></path>
        </g>
    </g>
</svg>