<?xml version="1.0" encoding="UTF-8"?>
<svg width="501px" height="366px" viewBox="0 0 501 366" version="1.1" xmlns="http://www.w3.org/2000/svg" xmlns:xlink="http://www.w3.org/1999/xlink">
    <!-- Generator: Sketch 49.2 (51160) - http://www.bohemiancoding.com/sketch -->
    <title>angler</title>
    <desc>Created with Sketch.</desc>
    <defs></defs>
    <g id="Page-1" stroke="none" stroke-width="1" fill="none" fill-rule="evenodd">
        <g id="Artboard" transform="translate(-22.000000, -51.000000)" stroke="#7d7e93" stroke-width="2">
            <path d="M32.6124121,258.813109 C33.8809583,258.245517 40.898638,256.479878 53.6654512,253.516194 C53.9530084,232.691186 55.5629629,222.278682 58.4953145,222.278682 C61.4276661,222.278682 65.1127951,232.691186 69.5507013,253.516194 L81.4522758,253.516194 C82.7856091,239.924076 84.9203098,233.128017 87.8563779,233.128017 C90.7924459,233.128017 93.8667446,239.924076 97.0792739,253.516194 L111.555127,253.516194 C114.326381,244.156846 116.901576,239.477172 119.280711,239.477172 C121.659845,239.477172 124.009756,244.156846 126.330443,253.516194 L167.422744,253.516194 L156.422305,225.655191 C147.010693,225.807239 141.991262,224.681736 141.364011,222.278682 C140.736759,219.875629 144.330309,215.538459 152.144661,209.267174 L145.855948,195.401235 C130.576949,198.758512 122.93745,198.758512 122.93745,195.401235 C122.93745,192.043958 129.079637,187.77822 141.364011,182.60402 L136.847347,169.95791 C114.099185,176.557075 102.725104,177.834599 102.725104,173.790481 C102.725104,169.746363 112.212663,163.795576 131.18778,155.938119 C127.949555,141.102362 126.330443,133.684483 126.330443,133.684483 C127.991407,129.95387 145.412433,124.405113 178.59352,117.038213 C172.210481,86.4820472 151.255431,69.6709359 115.728371,66.6048793 C80.2013101,63.5388227 61.1236247,82.1705196 58.4953145,122.49997 C67.9224311,128.392147 72.6359895,135.438216 72.6359895,143.638177 C72.6359895,155.938119 64.9131534,169.95791 48.6377777,169.95791 C32.3624021,169.95791 23.3538004,156.976622 23.3538004,143.638177 C23.3538004,134.745881 28.9629989,127.699812 40.1813959,122.49997 C45.8537837,75.6940704 71.0361087,52.2911205 115.728371,52.2911205 C182.766764,52.2911205 195.009011,112.650675 199.009171,117.038213 C271.399427,122.49997 302.067885,167.369895 326.89615,203.423533 C351.724415,239.477172 387.835179,257.077999 407.490379,250 C412.054892,248.356282 520.64851,161.210089 521.681756,162.876009 C522.715001,164.541929 416.044893,253.512148 417.191685,255.333981 C418.338477,257.155814 520.671855,207.42042 521.681756,209.267174 C522.691657,211.113927 419.999121,262.301216 419.999121,264.734515 C419.999121,267.167813 521.681756,263.63971 521.681756,265.734515 C521.681756,267.82932 419.999121,274.278902 419.999121,276.676562 C419.999121,279.074222 521.681756,308.887888 521.681756,311.060502 C521.681756,313.233116 418.338477,285.864513 417.191685,287.544334 C416.044893,289.224156 521.681756,351.077955 521.681756,352.479739 C521.681756,353.881523 413.350504,296.180786 407.490379,293.230119 C381.984592,280.387543 343.34619,296.449357 331.89615,311.043332 C320.44611,325.637307 310.969689,356.786805 261.214954,395.821332 C222.701107,426.036944 153.396301,417.420784 119.280711,398.950577 C68.2060097,371.298696 25.5626798,317.771509 32.6124121,258.813109 Z M192.636002,165.178682 C201.885851,169.29698 211.548017,170.132505 221.6225,167.685258 C216.700015,158.560929 209.613847,151.939616 200.363998,147.821318 C191.114149,143.70302 181.451983,142.867495 171.3775,145.314742 C176.299985,154.439071 183.386153,161.060384 192.636002,165.178682 Z M224.063361,246.686902 C222.515743,249.725578 270.295909,329.390475 270.295909,312.305878 C270.295909,295.221282 297.345661,290.365653 300.794543,285.462337 C304.243425,280.559022 293.757587,261.575349 305.266748,246.686902 C316.77591,231.798454 225.61098,243.648225 224.063361,246.686902 Z" id="angler" transform="translate(272.521507, 233.995799) scale(-1, 1) translate(-272.521507, -233.995799) "></path>
        </g>
    </g>
</svg>
