<svg width="260px" height="161px" xmlns="http://www.w3.org/2000/svg" xmlns:xlink="http://www.w3.org/1999/xlink">
  <filter id="white-glow" x="-5000%" y="-5000%" width="10000%" height="10000%">
    <feFlood result="flood" flood-color="#ffffff" flood-opacity="1"></feFlood>
    <feComposite in="flood" result="mask" in2="SourceGraphic" operator="in"></feComposite>
    <feMorphology in="mask" result="dilated" operator="dilate" radius="12"></feMorphology>
    <feGaussianBlur in="dilated" result="blurred" stdDeviation="15"></feGaussianBlur>
    <feMerge>
      <feMergeNode in="blurred"></feMergeNode>
      <feMergeNode in="SourceGraphic"></feMergeNode>
    </feMerge>
  </filter>
  <g fill="none" fill-rule="evenodd">
    <g transform="translate(1.000000, 1.000000)" stroke="#979797">
      <path d="M4.05023866,90.3581475 C4.60517231,90.1098124 7.67510093,89.337305 13.2600247,88.0406246 C13.3858184,78.9292018 14.090103,74.3734908 15.3728789,74.3734908 C16.6556547,74.3734908 18.2677383,78.9292018 20.2091283,88.0406246 L25.415548,88.0406246 C25.998823,82.0937587 26.9326614,79.1203254 28.2170632,79.1203254 C29.5014651,79.1203254 30.8463362,82.0937587 32.2516781,88.0406246 L38.5842316,88.0406246 C39.7965345,83.9456935 40.9230703,81.8982275 41.9638377,81.8982275 C43.0046051,81.8982275 44.032589,83.9456935 45.0477879,88.0406246 C52.9808836,86.5952385 59.7535743,88.9854413 65.36586,95.211233 C71.4988665,102.014668 69.1141346,95.5611873 58.2116645,75.850791 C54.0944949,75.9173155 51.8987128,75.4248821 51.6243182,74.3734908 C51.3499228,73.3220987 52.9219444,71.4244872 56.3403823,68.6806541 L53.5893445,62.6139855 C46.9054492,64.0828719 43.5635016,64.0828719 43.5635016,62.6139855 C43.5635016,61.145099 46.2504405,59.2787397 51.6243182,57.0149081 L49.6484745,51.4819428 C39.6971459,54.36923 34.721482,54.9281761 34.721482,53.1587811 C34.721482,51.389386 38.871875,48.7857791 47.172661,45.3479595 C45.756079,38.8569727 45.0477879,35.6114786 45.0477879,35.6114786 C45.7743875,33.9792491 53.3953259,31.5515399 67.9106039,28.328351 C65.118303,14.9593213 55.9513828,7.60407155 40.4098442,6.26260035 C24.8683048,4.92112985 16.5226504,13.0729286 15.3728789,30.717996 C19.4968314,33.2959595 21.5588073,36.3787778 21.5588073,39.9664504 C21.5588073,45.3479595 18.1804037,51.4819428 11.0606369,51.4819428 C3.94087021,51.4819428 0,45.8023287 0,39.9664504 C0,34.130572 5.4457785,30.717996 7.3613388,30.717996 C7.3613388,29.6845161 11.083472,0 40.4098442,0 C69.7362157,0 75.0916648,26.4087016 76.8415605,28.328351 C108.509139,30.717996 121.925251,50.349626 132.786534,66.1239264 C143.647816,81.8982275 159.4447,89.5989968 168.042993,86.5022079 C170.039767,85.7830433 217.544737,47.6545684 217.996737,48.3834466 C218.448737,49.1123255 171.785219,88.0388541 172.28689,88.8359481 C172.788562,89.6330422 217.554949,67.872657 217.996737,68.6806541 C218.438525,69.4886518 173.515021,91.8842746 173.515021,92.948899 C173.515021,94.0135235 217.996737,92.4698966 217.996737,93.3864226 C217.996737,94.3029479 173.515021,97.1247896 173.515021,98.173821 C173.515021,99.222853 217.996737,112.267021 217.996737,113.21759 C217.996737,114.168159 172.788562,102.193762 172.28689,102.928723 C171.785219,103.663683 217.996737,130.726152 217.996737,131.339465 C217.996737,131.952778 170.606541,106.70737 168.042993,105.416386 C156.885324,99.7974609 139.982708,106.824876 134.973815,113.210078 C129.964922,119.59528 125.819402,133.223905 104.053876,150.302414 C87.2057484,163.522443 56.8879199,159.752674 41.9638377,151.671532 C19.6208845,139.573193 0.966288401,116.153811 4.05023866,90.3581475 Z M218,48 C215.333333,52.8623269 214,56.9380029 214,60.2270264 C214,63.51605 215.333333,66.0954026 218,67.9650829 C215.333333,73.3164284 214,78.0152621 214,82.0615846 C214,86.1079079 215.333333,89.558372 218,92.4129785 C215.333333,96.0885309 214,99.6250619 214,103.022571 C214,106.420079 215.333333,109.689904 218,112.832048 C215.333333,115.268023 214,118.001748 214,121.033223 C214,124.064698 215.333333,127.386957 218,131 M88.0161081,85.2164439 C87.3386871,86.5470138 108.252957,121.430532 108.252957,113.94956 C108.252957,106.468589 120.093138,104.342415 121.602779,102.19536 C123.112419,100.048305 118.522571,91.7357702 123.560346,85.2164439 C128.598121,78.6971184 88.6935298,83.8858741 88.0161081,85.2164439 Z M88,85 L121,101 L88,85 Z M89,85 L121,91 L89,85 Z M89,86 L111,108 L89,86 Z M78.6792535,54.7980362 C82.4956441,58.007508 87.4504622,58.2726965 87.9089066,57.8389036 C88.367351,57.4051106 87.1345765,52.4667166 83.3181859,49.2572448 C79.5017953,46.047773 74.5383232,45.6482491 74.0885335,46.2163774 C73.6387439,46.7845057 74.8628629,51.5885637 78.6792535,54.7980362 Z" transform="translate(109.000000, 79.500000) scale(-1, 1) translate(-109.000000, -79.500000) "></path>
      <circle id="light" cx="207.5" cy="40.5" r="1" stroke-width="1" filter="url(#white-glow)"></circle>
    </g>
  </g>
</svg>
