<?xml version="1.0" encoding="UTF-8"?>
<svg width="1024px" height="395px" viewBox="0 0 1024 395" version="1.1" xmlns="http://www.w3.org/2000/svg" xmlns:xlink="http://www.w3.org/1999/xlink">
    <!-- Generator: Sketch 49.3 (51167) - http://www.bohemiancoding.com/sketch -->
    <title>constancy</title>
    <desc>Created with Sketch.</desc>
    <defs></defs>
    <g id="constancy" stroke="none" stroke-width="1" fill="none" fill-rule="evenodd">
        <g id="Group" transform="translate(230.000000, 8.000000)">
            <path d="M406.199252,380 L496,222.156311 L323.830998,0 L237.045987,143.15612 L403.923222,379.99034 L0,379.99034 L92.4329386,219.855599 L485.858177,224.363292" id="Path-11" stroke="#D1D1D1" stroke-width="2" stroke-dasharray="10,5"></path>
            <polygon id="Path-12" stroke="#F1F1F1" stroke-width="3" points="360.135731 136 333 178.342984 362.799107 217 389 174.268825"></polygon>
            <polygon id="Path-13" stroke="#F1F1F1" stroke-width="3" points="293 264.130687 262.910549 324.579812 94 349 152.152284 248"></polygon>
            <path d="M264,326 L515,54 L291.115549,264.17632 M94,348 L511,51 L152.915197,247.712274" id="Combined-Shape" stroke="#D1D1D1" stroke-width="2" stroke-dasharray="10,5"></path>
            <path d="M513.964824,11 C500.985614,19.6544952 523.844765,62.9042617 525.988233,67.9705046 C528.131702,73.0367474 534.395688,62.6938601 536.244191,63.6588864 C538.092693,64.6239127 538.530734,72.6238078 539.503535,73.379899 C540.476337,74.1359902 549.86498,67.2195951 549.86498,67.9705046 C549.86498,68.4711109 547.60023,71.8561 543.070731,78.1254718 C545.529637,82.7084906 549.162134,85 553.968224,85 C558.774314,85 561.709303,82.7084906 562.773192,78.1254718 L565,51.5865253 M515.29794,32.85455 C512.968392,29.2118705 534.729704,26.9738944 535.092681,31.1227346 M527.120184,50 C534.820748,43.868107 538.433558,40.4016803 537.958613,39.6007201 C537.483669,38.79976 531.830798,38.79976 521,39.6007201 M528,48.9041239 C528.84753,49.8200118 526.009227,49.6018608 523.735282,45.1975756 C522.219318,42.2613855 521.744216,40.5288603 522.309973,40" id="Combined-Shape" stroke="#D1D1D1" stroke-width="2" stroke-linecap="round"></path>
        </g>
    </g>
</svg>