<?xml version="1.0" encoding="UTF-8"?>
<svg width="1024px" height="395px" viewBox="0 0 1024 395" version="1.1" xmlns="http://www.w3.org/2000/svg" xmlns:xlink="http://www.w3.org/1999/xlink">
    <!-- Generator: Sketch 49.3 (51167) - http://www.bohemiancoding.com/sketch -->
    <title>facets</title>
    <desc>Created with Sketch.</desc>
    <defs></defs>
    <g id="facets" stroke="none" stroke-width="1" fill="none" fill-rule="evenodd">
        <path d="M7.61147156,144.317447 L174.858919,187.196507 L312.217051,87.7619314 L145.266728,45 L7.61147156,144.317447 Z M6.11174475,145.013267 L5,306.273683 L174.022701,349.859002 L174.022701,187.640776 M314,86.7415905 L314,247.816793 L175.068733,350" id="Combined-Shape" stroke="#D1D1D1" stroke-width="3"></path>
        <path d="M399.999475,116.91522 L513.047258,199.863284 L625,118.931642 L513.047258,38 L399.999475,116.91522 Z M399,116.93064 L399.999475,275.943593 L513.047258,355.847112 L513.047258,199.863284 M625,118.931642 L621.854297,281.258689 L513.86379,357" id="Combined-Shape" stroke="#D1D1D1" stroke-width="3"></path>
        <path d="M713.999475,117.916332 L827.047258,199.863014 L938.000525,118.932242 L827.047258,35 L713.999475,117.916332 Z M713,117.931752 L714.998949,279.944465 L826.047783,359.847124 L827.047258,200.863504 M939,119.932732 L937.853247,281.257543 L826.864315,361 M715.719588,279.773431 L824.945964,199.480626 L828.795869,199.480626 L936.986548,281.431946 M827.16875,198.871607 L827.16875,37.4319535" id="Combined-Shape" stroke="#D1D1D1" stroke-width="3"></path>
    </g>
</svg>