<?xml-stylesheet type="text/css" href="../css/svg.css" ?>
<svg width="18" height="18" xmlns="http://www.w3.org/2000/svg"><g fill-rule="evenodd"><path d="M12.107 12.7a2.218 2.218 0 0 1 2.276-.125 2.742 2.742 0 0 0 1.227.417 2.208 2.208 0 0 0 2.396-1.999 1.767 1.767 0 0 0-1.53-1.908 1.418 1.418 0 0 1 1.211 1.534c-.088.976-.948 1.65-1.928 1.608-.53-.023-.924-.302-.983-.333a2.219 2.219 0 0 1-1.034-1.96c.033-.164.057-.33.072-.496.15-.844.76-1.49 1.527-1.73a2.749 2.749 0 0 0 1.163-.573 2.206 2.206 0 0 0 .28-3.106 1.767 1.767 0 0 0-2.43-.268 1.417 1.417 0 0 1 1.94.228c.629.753.497 1.838-.225 2.5-.39.36-.868.441-.931.46a2.218 2.218 0 0 1-2.19-.736 4.723 4.723 0 0 0-.274-.353 2.217 2.217 0 0 1-.108-2.248 2.747 2.747 0 0 0 .417-1.228A2.205 2.205 0 0 0 10.985-.01a1.767 1.767 0 0 0-1.908 1.53A1.418 1.418 0 0 1 10.61.308c.977.088 1.651.948 1.609 1.928-.023.53-.302.925-.333.983a2.218 2.218 0 0 1-2.024 1.03 4.786 4.786 0 0 0-.408-.054l.006-.01c-.85-.147-1.501-.759-1.74-1.529a2.752 2.752 0 0 0-.573-1.163 2.206 2.206 0 0 0-3.106-.28 1.767 1.767 0 0 0-.27 2.43 1.417 1.417 0 0 1 .23-1.94c.752-.629 1.837-.497 2.5.226.358.39.44.867.46.93a2.218 2.218 0 0 1-.743 2.195l.007.004c-.098.07-.195.142-.289.22l-.002-.01a2.219 2.219 0 0 1-2.312.149A2.745 2.745 0 0 0 2.395 5 2.206 2.206 0 0 0 0 6.998a1.767 1.767 0 0 0 1.529 1.908A1.418 1.418 0 0 1 .318 7.373c.088-.977.948-1.65 1.928-1.609.53.023.924.302.983.333a2.218 2.218 0 0 1 1.029 2.056 4.777 4.777 0 0 0-.05.368L4.2 8.516a2.219 2.219 0 0 1-1.53 1.74 2.749 2.749 0 0 0-1.163.573 2.206 2.206 0 0 0-.28 3.106c.608.731 1.683.843 2.43.27-.6.45-1.454.355-1.94-.229-.629-.753-.497-1.838.225-2.5.39-.36.868-.44.931-.46.75-.17 1.563.058 2.116.653.088.134.184.263.286.388l-.016.004c.496.705.524 1.599.149 2.313a2.745 2.745 0 0 0-.417 1.227 2.206 2.206 0 0 0 1.998 2.395 1.767 1.767 0 0 0 1.908-1.53 1.418 1.418 0 0 1-1.533 1.212c-.977-.089-1.651-.949-1.609-1.928.023-.53.302-.925.333-.984a2.218 2.218 0 0 1 1.993-1.032c.158.032.317.054.475.07a2.218 2.218 0 0 1 1.71 1.522 2.753 2.753 0 0 0 .573 1.163 2.206 2.206 0 0 0 3.106.28c.73-.608.842-1.683.269-2.43.451.6.356 1.454-.228 1.941-.753.628-1.838.497-2.5-.226-.36-.39-.44-.867-.46-.931a2.219 2.219 0 0 1 .616-2.081 4.86 4.86 0 0 0 .464-.342z" fill="#000" fill-rule="nonzero"/><path d="M8.586 8a.942.942 0 0 0-.148.508c0 .531.44.962.984.962s.984-.43.984-.962a.94.94 0 0 0-.085-.392c.867.192 1.179.573 1.179.915 0 .483-.6.969-2.528.969C7.045 10 6.5 9.52 6.5 9.031c0-.453.485-.961 2.086-1.031z" fill="#FFF"/></g></svg>
