<svg width="27" height="27" xmlns="http://www.w3.org/2000/svg" class="logo"><g id="metis" fill-rule="evenodd"><path d="M18.161 19.05a3.328 3.328 0 0 1 3.414-.188 4.112 4.112 0 0 0 1.841.625 3.312 3.312 0 0 0 3.592-2.997 2.651 2.651 0 0 0-2.294-2.862 2.127 2.127 0 0 1 1.817 2.3c-.133 1.465-1.423 2.476-2.892 2.413-.795-.035-1.387-.454-1.475-.5a3.329 3.329 0 0 1-1.55-2.94c.048-.247.084-.495.106-.744a3.327 3.327 0 0 1 2.292-2.594 4.123 4.123 0 0 0 1.744-.86 3.309 3.309 0 0 0 .42-4.66 2.65 2.65 0 0 0-3.645-.401c.9-.678 2.18-.533 2.91.342.943 1.13.746 2.756-.338 3.75-.586.538-1.3.661-1.397.69a3.328 3.328 0 0 1-3.285-1.105 7.084 7.084 0 0 0-.41-.529 3.326 3.326 0 0 1-.161-3.372 4.12 4.12 0 0 0 .625-1.841 3.308 3.308 0 0 0-2.997-3.592 2.65 2.65 0 0 0-2.863 2.293 2.127 2.127 0 0 1 2.3-1.816c1.465.132 2.477 1.422 2.413 2.892-.034.794-.453 1.387-.5 1.475a3.326 3.326 0 0 1-3.036 1.545 7.18 7.18 0 0 0-.611-.082l.008-.014a3.328 3.328 0 0 1-2.61-2.294 4.129 4.129 0 0 0-.86-1.744 3.308 3.308 0 0 0-4.66-.42 2.65 2.65 0 0 0-.402 3.645c-.676-.901-.533-2.181.343-2.911 1.129-.943 2.756-.745 3.75.339.538.586.661 1.3.69 1.396A3.327 3.327 0 0 1 9.328 7.58l.01.006a7.251 7.251 0 0 0-.432.33L8.9 7.902a3.328 3.328 0 0 1-3.468.223A4.118 4.118 0 0 0 3.592 7.5 3.308 3.308 0 0 0 0 10.497a2.65 2.65 0 0 0 2.293 2.862 2.126 2.126 0 0 1-1.816-2.3c.132-1.465 1.422-2.476 2.892-2.412.794.034 1.387.453 1.475.499a3.327 3.327 0 0 1 1.542 3.083 7.165 7.165 0 0 0-.074.552l-.011-.006a3.329 3.329 0 0 1-2.295 2.61 4.123 4.123 0 0 0-1.744.86 3.308 3.308 0 0 0-.42 4.66 2.65 2.65 0 0 0 3.645.402 2.127 2.127 0 0 1-2.91-.343c-.943-1.13-.746-2.756.338-3.75.586-.539 1.3-.661 1.396-.69a3.327 3.327 0 0 1 3.174.98c.133.2.276.394.429.582l-.025.006a3.328 3.328 0 0 1 .224 3.469 4.118 4.118 0 0 0-.625 1.841 3.308 3.308 0 0 0 2.997 3.592 2.65 2.65 0 0 0 2.862-2.294 2.127 2.127 0 0 1-2.3 1.816c-1.464-.132-2.476-1.422-2.413-2.891.034-.795.454-1.387.5-1.476a3.328 3.328 0 0 1 2.989-1.547c.237.046.475.08.713.103a3.328 3.328 0 0 1 2.565 2.285 4.13 4.13 0 0 0 .86 1.744 3.309 3.309 0 0 0 4.66.42 2.65 2.65 0 0 0 .402-3.645c.677.9.533 2.18-.343 2.911-1.129.942-2.756.745-3.75-.339-.538-.586-.66-1.3-.69-1.397a3.328 3.328 0 0 1 .924-3.121 7.29 7.29 0 0 0 .697-.513z" fill-rule="nonzero"/><path d="M12.92 12a1.487 1.487 0 0 0-.207.762c0 .797.617 1.443 1.378 1.443.76 0 1.378-.646 1.378-1.443 0-.21-.043-.408-.119-.587 1.213.287 1.65.858 1.65 1.372C17 14.27 16.16 15 13.461 15 10.763 15 10 14.28 10 13.547c0-.68.68-1.442 2.92-1.547z" fill="#FFF"/></g></svg>
