<?xml version="1.0" encoding="UTF-8"?>
<svg width="323px" height="267px" viewBox="0 0 323 267" version="1.1" xmlns="http://www.w3.org/2000/svg" xmlns:xlink="http://www.w3.org/1999/xlink">
    <!-- Generator: Sketch 49.2 (51160) - http://www.bohemiancoding.com/sketch -->
    <title>octopus</title>
    <desc>Created with Sketch.</desc>
    <defs></defs>
    <g id="Page-1" stroke="none" stroke-width="1" fill="none" fill-rule="evenodd">
        <g id="Artboard" transform="translate(-433.000000, -153.000000)" fill-rule="nonzero" stroke="#9B9B9B" stroke-width="2">
            <path d="M752.062177,258.861345 C750.13778,256.173231 747.247809,254.082851 744.151894,252.840105 C743.382136,252.519287 742.609001,252.252502 741.690692,251.992471 L740.687981,251.712177 L739.428683,251.442015 C737.865532,251.127952 736.204474,250.905068 734.425252,250.86792 C732.646029,250.840904 730.741889,251.030018 728.81074,251.523064 C726.882968,252.009356 724.945067,252.836728 723.196229,253.92413 C719.651288,256.109067 717.024656,259.165278 715.015856,262.123554 C711.008385,268.114401 708.675476,274.101871 706.129871,279.694229 C703.621403,285.279833 701.004899,290.504095 697.844837,294.853707 C694.809693,299.091876 691.00479,302.249397 687.095226,304.387056 C677.43273,307.69992 669.454925,311.867172 664.437989,305.332624 C661.156387,301.057307 664.694576,297.325691 668.259773,292.989587 C669.110559,292.037265 669.961345,291.047796 670.818883,289.967147 C672.881701,287.316181 674.82973,284.526756 676.58532,281.595496 C678.367919,278.684498 679.981711,275.64855 681.500972,272.572078 C683.023608,269.495605 684.407823,266.334707 685.57259,263.092761 C687.888618,256.612245 689.428135,249.821042 689.813014,243.023085 C690.170884,236.231882 689.465272,229.481204 687.692802,223.267473 C687.260657,221.71404 686.73398,220.201132 686.156661,218.72537 C685.802167,217.769672 685.656993,217.448854 685.272114,216.540433 C684.937876,215.733324 684.62052,215.061295 684.262649,214.345365 C682.86493,211.52217 681.200496,208.93199 679.323365,206.615349 C675.592737,201.982067 670.970809,198.402418 666.038277,196.447118 C663.577075,195.477912 661.078736,194.880178 658.671552,194.714703 C656.321763,194.518836 653.938212,194.670802 651.790991,195.27529 C649.626889,195.862893 647.702492,196.953673 646.260883,198.307861 C644.805769,199.658672 643.846947,201.242498 643.303389,202.765537 C642.223026,205.798108 642.685557,208.736122 644.218322,210.296309 C644.964447,211.069649 645.828738,211.339811 646.34191,211.420859 C647.770015,211.495154 648.310196,210.991977 648.330453,210.346965 C648.347334,209.705329 647.840914,209.165005 647.202824,209.14812 C647.216329,209.124481 646.63901,209.144743 646.247378,208.52337 C646.041434,208.209306 645.876003,207.641965 645.903013,206.868626 C645.933398,206.102041 646.176479,205.15985 646.693028,204.231167 C647.702492,202.343409 649.886851,200.675157 652.87473,200.35434 C654.370357,200.175357 656.014535,200.283422 657.790381,200.708927 C659.522338,201.120925 661.257671,201.860494 662.93561,202.860094 C666.267854,204.896442 669.350265,208.070848 671.662917,212.02197 C672.824307,213.990778 673.789881,216.148698 674.519126,218.418061 C674.698061,218.97527 674.883749,219.58989 675.008666,220.103198 C675.103197,220.505064 675.393545,221.514795 675.420554,221.909908 C675.629874,223.139146 675.798681,224.381892 675.926974,225.638146 C676.41989,230.663163 676.014754,235.911065 674.795969,241.044147 C673.610946,246.183983 671.737192,251.252902 669.181458,255.98074 C667.905279,258.34466 666.494055,260.637662 664.930905,262.805713 C663.361003,264.973765 661.58178,266.976343 659.745163,268.864101 C657.888289,270.745106 655.947012,272.50116 653.971973,274.142395 C651.980054,275.80727 650.011768,277.451883 648.077243,279.069479 C647.003632,279.967768 645.943526,280.866058 644.896925,281.771101 C636.443084,288.724401 631.500424,291.834644 627.938602,292.91867 C631.486919,283.290764 633.529481,272.747683 633.529481,262.93404 C633.529481,234.202289 615.365879,225.668539 594.508121,222.568428 C573.65374,225.668539 555.493514,234.198911 555.493514,262.93404 C555.493514,272.551815 557.458425,282.858504 560.871696,292.32769 C555.247057,289.96377 547.262499,284.280233 539.136144,273.909381 C537.042941,270.940973 534.845078,267.92191 532.522297,264.858946 C531.350779,263.389939 530.233278,261.863523 529.075264,260.323598 C527.883489,258.807313 526.738979,257.233618 525.570837,255.639661 C523.278442,252.438238 521.036689,249.08485 518.997504,245.535594 C518.507964,244.640681 518.018425,243.742392 517.525509,242.837348 L516.786136,241.476406 C516.745622,241.388604 516.534051,240.924825 516.151422,240.085071 L515.472819,238.568785 L514.902253,237.207843 C514.52075,236.319685 514.142623,235.377494 513.778,234.408287 C512.312758,230.571984 511.050084,226.637746 510.168913,222.6461 C508.352552,214.676314 507.947416,206.432989 509.652364,198.723235 C511.310046,191.020235 515.104821,183.850805 520.692323,178.201038 C526.239311,172.544516 533.400092,168.367133 540.783698,166.259868 C544.463684,165.196104 548.217945,164.628763 551.69874,164.763844 C552.569782,164.790861 553.41044,164.875286 554.23084,164.990105 C554.6326,165.061023 555.041112,165.118432 555.425992,165.209612 L556.762941,165.527053 C558.640072,165.996459 560.388909,166.486128 561.894665,167.09737 C563.413925,167.698481 564.656343,168.397526 565.719825,169.309324 C566.796812,170.200859 567.711744,171.352425 568.522016,172.699859 C568.834871,173.244687 569.021684,173.571133 569.082455,173.679198 L569.599003,174.756469 C569.875846,175.327187 570.108799,176.070133 570.301239,176.7219 C570.638853,178.069334 570.750265,179.426899 570.6321,180.787841 C570.358633,183.502971 569.187115,186.211347 567.509176,188.558382 C566.857582,189.426278 565.878503,190.402239 564.896048,191.09453 C563.88996,191.810459 562.806221,192.371046 561.688721,192.745896 C559.457096,193.485465 557.137692,193.580022 555.132268,193.076845 C554.625848,192.975534 554.153189,192.796552 553.68053,192.637831 C552.681195,192.202195 552.525892,192.097507 552.340205,191.992819 C551.580575,191.577444 550.793936,190.996596 550.203112,190.388731 C548.940438,189.186509 548.177432,187.768157 547.714901,186.48151 C547.259123,185.177977 547.144335,183.975755 547.134206,183.006548 C547.140958,182.520256 547.154463,182.087997 547.208481,181.716524 C547.252371,181.341673 547.289508,181.024233 547.353655,180.77771 C547.425679,180.442258 547.4887,180.147331 547.542718,179.892929 C547.660883,179.318834 547.330022,178.731231 546.756079,178.548872 C546.141623,178.356381 545.486653,178.694084 545.294213,179.308703 C545.294213,179.308703 545.203057,179.605881 545.013994,180.190107 C544.91271,180.477154 544.82493,180.848627 544.733775,181.297772 C544.618986,181.740163 544.551463,182.263602 544.487317,182.861336 C544.379281,184.056804 544.372528,185.58322 544.797921,187.319013 C545.230066,189.041297 546.053843,191.006727 547.573104,192.78642 C548.329358,193.698218 549.193648,194.512082 550.331405,195.295552 C550.615,195.49142 550.932357,195.707549 551.158558,195.829122 L552.01272,196.305283 C552.627176,196.592331 553.255137,196.892886 553.930364,197.105639 C556.604263,198.054584 559.787957,198.267336 563.018918,197.534521 C564.636086,197.156294 566.243126,196.511282 567.775891,195.609616 C569.325536,194.687687 570.706375,193.613792 572.100719,192.050228 C574.328967,189.436409 576.472812,186.089774 577.380993,181.905637 C577.823266,179.825388 577.911046,177.576288 577.607194,175.35758 C577.428258,174.23303 577.22569,173.192906 576.844187,172.034585 L576.567344,171.190328 L576.206098,170.207613 L575.66254,168.985129 C574.747608,166.999437 573.508567,164.936073 571.79349,163.125986 C570.105423,161.29226 568.008844,159.806368 565.919017,158.70208 C563.825814,157.574152 561.735987,156.753535 559.703554,156.000457 C558.697466,155.625607 558.383485,155.541182 558.086386,155.446625 C557.478681,155.24738 556.877729,155.098791 556.266649,154.946825 C555.054617,154.663154 553.832456,154.436894 552.613672,154.295058 C547.728406,153.693947 542.86002,154.051912 538.076038,155.000857 C528.535083,156.96291 519.243961,161.440849 511.404578,168.272576 C503.561818,175.063779 497.467896,184.485686 494.513778,194.799129 C491.536028,205.12608 491.505643,215.932568 493.136316,225.881292 C493.926331,230.88267 495.15862,235.705066 496.606981,240.341725 C496.964852,241.496668 497.346355,242.658366 497.771748,243.843703 L498.392956,245.599757 L498.977028,247.15319 C499.804181,249.371897 500.624581,251.577096 501.43823,253.762033 C504.807611,262.410601 508.332296,270.768745 512.674004,278.090141 C513.281708,279.126888 513.906293,280.129866 514.547759,281.119335 C524.277777,296.971103 534.34541,299.24722 528.693761,305.319115 C525.793662,308.432735 520.631553,309.270238 515.084564,308.591455 C514.395833,308.503653 514.071724,308.446243 513.747615,308.392211 C513.22769,308.307785 512.704389,308.203097 512.184465,308.098409 C511.843475,308.027492 511.502486,307.956574 511.15812,307.878903 C508.298534,307.169727 505.763057,306.257929 503.42002,305.136756 L502.393676,304.616694 C498.355819,302.489166 494.405742,299.270859 491.262561,294.914493 C488.088995,290.578389 485.458986,285.360882 482.933638,279.782032 C480.371152,274.199805 478.017986,268.215712 473.993635,262.238373 C471.978082,259.283473 469.341322,256.240771 465.789628,254.059212 C464.037415,252.98194 462.099514,252.157945 460.168365,251.67503 C458.237216,251.188738 456.333076,251.006379 454.550478,251.040149 C452.771255,251.077296 451.106821,251.310311 449.553799,251.624375 L448.294501,251.901291 L447.291789,252.184961 C446.376857,252.448369 445.600346,252.715155 444.830587,253.035972 C441.738048,254.295604 438.85483,256.389361 436.940562,259.087606 C434.989156,261.762212 434.074224,264.869077 434.006701,267.705781 C433.925674,270.552615 434.58402,273.179943 435.735282,275.375011 C436.879791,277.576833 438.554354,279.366657 440.468622,280.481077 C442.38289,281.612381 444.476093,281.970346 446.197922,281.865658 C447.943383,281.777855 449.351231,281.274678 450.47886,280.781632 C451.599736,280.264947 452.453898,279.711114 453.108868,279.228199 C453.763838,278.752038 454.233121,278.356926 454.540349,278.086764 C455.397887,277.320179 455.516052,276.729199 455.252713,276.23953 C454.942109,275.672189 454.236497,275.46619 453.66593,275.770123 C452.798264,276.246284 452.318853,276.492807 451.680763,276.759592 C450.441722,277.286408 448.453179,277.982076 446.326215,277.630865 C444.239764,277.30667 442.254597,275.695828 441.484838,272.90978 C441.099959,271.552215 441.056069,269.971766 441.427444,268.485874 C441.808947,267.006736 442.555073,265.645794 443.669197,264.642816 C444.779945,263.629708 446.241811,262.930663 448.027786,262.576076 C448.476812,262.478142 448.956223,262.420732 449.314093,262.390339 L450.310053,262.292405 C452.021753,262.258635 453.061602,262.30929 454.013672,262.468011 C455.934693,262.795582 457.379678,263.454103 458.571453,264.555014 C459.773357,265.63904 460.894234,267.287029 461.91045,269.448327 C462.926667,271.599494 463.821342,274.162658 464.682256,276.921689 C465.580308,279.812425 466.488488,282.740308 467.406797,285.69183 C469.314312,291.811005 471.583075,298.423225 475.128016,304.913872 C478.629067,311.404519 483.335398,317.864774 489.560989,322.9472 L491.77911,324.693124 C492.690666,325.368529 493.470553,325.87846 494.341595,326.442424 C496.0668,327.516319 497.859527,328.488903 499.713025,329.316275 C503.42002,330.950756 507.322831,332.078683 511.15812,332.585237 C513.426882,332.912809 515.645002,333.024251 517.819233,332.997235 C517.85637,333.064775 526.941547,332.966842 530.766707,337.00239 C531.914593,338.214743 533.163763,339.66011 532.58982,342.983106 C531.887584,347.038916 529.669464,348.926675 523.811871,348.754446 C518.963742,348.376219 513.946807,348.224253 509.004146,348.713922 C504.068238,349.179952 499.223485,350.399059 494.993189,352.313833 C492.859473,353.299925 490.99247,354.282641 488.96679,355.761779 C487.903307,356.535118 487.066026,357.348982 486.232121,358.267533 C485.442106,359.219855 484.729741,360.219455 484.199688,361.32712 C483.092316,363.512057 482.693932,365.963779 482.953895,368.168979 C483.217233,370.384309 484.091652,372.353116 485.317189,373.85927 C486.546102,375.362048 488.102499,376.435942 489.692659,376.945874 C491.282818,377.47269 492.822335,377.492952 494.095138,377.273445 C496.654247,376.763514 498.190388,375.608571 499.115449,374.8251 C499.608365,374.45025 499.898712,374.092285 500.135042,373.886287 C500.840654,373.190619 500.931809,372.599639 500.65159,372.126855 C500.320729,371.5764 499.608365,371.397417 499.051303,371.728366 C498.369324,372.116724 498.055343,372.363247 497.596189,372.559115 C496.725146,373.011636 495.334179,373.548584 493.767653,373.48442 C492.991142,373.430388 492.19775,373.210881 491.492138,372.758359 C490.779774,372.322723 490.182198,371.616924 489.753429,370.779421 C488.909395,369.057137 489.061322,366.730365 490.533316,365.062113 C491.211919,364.214479 492.292282,363.427632 493.460424,362.877176 C494.642071,362.29295 496.434799,361.742495 498.112737,361.38453 C501.54289,360.628076 505.246509,360.540273 509.145944,360.9185 C513.045379,361.289973 517.133877,362.215279 521.441825,363.322944 C523.605927,363.890284 525.813919,364.504904 528.123194,365.112769 C528.454056,365.234341 528.788293,365.345783 529.142787,365.443717 C542.444756,369.097661 558.839263,383.409505 547.269251,399.413239 C546.874244,399.865761 546.469108,400.304774 546.047091,400.720149 C543.268532,403.516328 539.835004,405.572938 535.868046,406.879847 C534.888967,407.220927 533.865999,407.474204 532.846406,407.747744 C532.319729,407.859186 531.803181,407.96725 531.286632,408.082069 C531.13133,408.180003 530.034086,408.284691 529.905793,408.321838 C528.332515,408.554853 526.408118,408.453542 524.682914,408.075315 C521.198743,407.291845 517.954278,405.471627 516.262835,403.107707 C515.412049,401.935879 514.976528,400.659362 514.929262,399.33219 C514.969775,398.656785 515.010289,398.400131 515.04405,398.295443 C515.098069,398.045543 515.202729,397.680824 515.320893,397.380268 C515.550471,396.745387 515.864451,396.147653 516.229074,395.593821 C517.684187,393.361605 519.844913,392.064827 521.590375,391.852074 C523.359469,391.615682 524.74706,392.294465 525.574213,392.915838 C525.999606,393.223147 526.306834,393.503441 526.499274,393.699308 C527.282537,394.489533 527.944259,394.533434 528.416918,394.158584 C528.916586,393.760095 529.000989,393.02728 528.602605,392.52748 C528.052296,391.835189 527.711306,391.429946 527.188005,390.957162 C526.678209,390.477624 525.972597,389.923791 524.996894,389.474647 C524.034696,389.011994 522.78215,388.701307 521.381054,388.721569 C518.561982,388.785733 515.388416,390.322281 513.021746,393.192754 C512.430923,393.915438 511.887365,394.722548 511.428211,395.637722 C511.195257,396.096998 510.999442,396.546143 510.803626,397.120237 C510.729351,397.329613 510.579676,397.844047 510.3546,398.663539 C509.770529,400.861984 509.979849,403.458918 510.888029,405.78569 C511.789457,408.125971 513.298589,410.216351 515.121702,412.01293 C516.94819,413.816262 519.139301,415.305532 521.593751,416.47736 C524.081962,417.635681 526.728851,418.479938 529.872032,418.790624 C530.918633,418.861542 531.003037,418.918951 532.036134,418.915574 C532.704608,418.925705 533.379835,418.935836 534.058438,418.945968 C535.41902,418.912197 536.803235,418.868296 538.217836,418.699445 C541.040284,418.398889 543.970768,417.804532 546.880996,416.808309 C549.791224,415.812086 552.657562,414.383603 555.311203,412.630926 C560.648871,409.095178 564.916305,404.323437 568.30932,399.521304 C570.024396,397.113483 571.543656,394.671892 572.995394,392.270826 C573.842804,390.872736 574.676709,389.484778 575.517366,388.090065 C579.369536,383.162982 585.858466,378.796485 593.31297,377.725967 C601.878222,377.969113 609.511662,382.767869 613.839866,388.269048 C614.680523,389.660383 615.521181,391.048341 616.371967,392.443054 C617.830457,394.844121 619.359845,397.282335 621.081674,399.683401 C624.484817,404.472027 628.769131,409.233636 634.113552,412.749122 C636.773946,414.498422 639.64366,415.916774 642.557264,416.902866 C645.470867,417.892335 648.401352,418.473184 651.227176,418.770362 C652.641776,418.935836 654.029368,418.972984 655.386574,419 C656.0618,418.989869 656.737027,418.976361 657.408878,418.96623 C658.438599,418.96623 658.526378,418.905443 659.57298,418.834526 C662.716161,418.513708 665.359674,417.662697 667.841133,416.497622 C670.292206,415.315663 672.479941,413.823016 674.303054,412.016307 C676.119414,410.216351 677.62517,408.122594 678.516469,405.775559 C679.417897,403.448787 679.620465,400.848476 679.026265,398.653408 L678.796688,397.809151 C678.374671,396.529257 678.182232,396.086867 677.945902,395.624214 C677.483372,394.715794 676.936438,393.908684 676.342239,393.189377 C673.972192,390.322281 670.79525,388.795864 667.972802,388.745209 C666.56833,388.724946 665.315784,389.03901 664.356962,389.508417 C663.384636,389.964316 662.679023,390.521525 662.169227,390.994309 C661.649303,391.47047 661.304937,391.875713 661.09224,392.15263 C660.400133,393.030657 660.427142,393.692554 660.852535,394.114683 C661.301561,394.567204 662.040934,394.567204 662.493336,394.114683 C663.060527,393.537211 663.364379,393.256918 663.786395,392.952985 C664.613548,392.324858 665.997763,391.646075 667.766858,391.87909 C669.515695,392.088466 671.679797,393.375114 673.141663,395.607329 C673.499534,396.157784 673.81689,396.758895 674.056596,397.387023 C674.17476,397.694332 674.279421,398.055674 674.336815,398.305574 C674.478613,398.964094 674.451603,399.190355 674.45498,399.338945 C674.404338,400.672871 673.975569,401.94601 673.128159,403.117839 C671.443468,405.485135 668.205755,407.315484 664.724961,408.112463 C662.999756,408.497444 661.07536,408.605509 659.505457,408.375871 C659.373788,408.335346 658.279921,408.237413 658.121242,408.139479 C657.60807,408.031414 657.084769,407.919972 656.564844,407.80853 C655.541876,407.541745 654.518907,407.291845 653.536452,406.950765 C649.566118,405.657363 646.13259,403.610885 643.340527,400.824837 C642.925262,400.412839 642.520126,399.977203 642.125118,399.531435 C630.49096,383.561471 646.844954,369.195595 660.143547,365.501127 C660.494665,365.403193 660.828902,365.288374 661.163139,365.163424 C663.472415,364.545428 665.673655,363.927432 667.837757,363.356714 C672.138952,362.235541 676.224074,361.303481 680.123509,360.911746 C684.022944,360.520011 687.726563,360.601059 691.160092,361.347383 C692.841407,361.698593 694.634134,362.245672 695.815781,362.826521 C696.987299,363.370222 698.071038,364.153693 698.753018,364.99795 C700.231764,366.666201 700.387066,368.999727 699.546409,370.715258 C699.121016,371.556137 698.52344,372.265313 697.814452,372.704327 C697.112216,373.156849 696.318825,373.379732 695.542314,373.433765 C693.972411,373.504682 692.58482,372.967735 691.710402,372.51859 C691.247871,372.322723 690.937267,372.0762 690.704314,371.958004 C689.79951,371.417679 689.208686,371.478466 688.823807,371.873578 C688.371405,372.336231 688.378157,373.069046 688.840687,373.521568 C689.411254,374.058515 689.701602,374.413103 690.20127,374.787953 C691.12633,375.561292 692.662471,376.712859 695.221581,377.219413 C696.49776,377.432166 698.037277,377.415281 699.627436,376.878333 C701.217596,376.361648 702.767241,375.284376 703.992778,373.778222 C705.214938,372.272067 706.082605,370.296506 706.339191,368.081176 C706.592401,365.8726 706.187265,363.420878 705.073141,361.242695 C704.543088,360.138407 703.827347,359.138806 703.033956,358.193239 C702.200051,357.274687 701.359393,356.4642 700.292535,355.690861 C698.260102,354.2151 696.389724,353.239139 694.256007,352.259801 C690.018958,350.358534 685.17083,349.146181 680.234921,348.700414 C675.285509,348.217499 670.268573,348.38635 665.423821,348.781462 C659.57298,348.970576 657.344731,347.089572 656.632367,343.037138 C656.048296,339.714143 657.290713,338.262021 658.438599,337.046291 C662.246878,333.007366 671.335432,333.068152 671.335432,333.068152 C673.543423,333.024251 675.761544,332.906055 678.030306,332.575106 C681.865594,332.058421 685.761653,330.920363 689.468648,329.268996 C691.315394,328.438247 693.104745,327.458909 694.826573,326.385014 C695.697616,325.814297 696.477503,325.304366 697.385683,324.625583 L699.597051,322.872906 C705.812514,317.770217 710.498588,311.296455 713.979383,304.795676 C717.500691,298.288144 719.752572,291.672546 721.646584,285.549995 C722.554764,282.595096 723.452815,279.667213 724.344115,276.769723 C725.194901,274.010691 726.0862,271.440773 727.095664,269.289607 C728.105128,267.121555 729.222629,265.476942 730.41778,264.386162 C731.60618,263.281874 733.047789,262.623354 734.965433,262.285651 C735.920879,262.126931 736.960728,262.072898 738.034339,262.096538 C738.588025,262.123554 739.131583,262.155073 739.665012,262.191094 C740.022882,262.218111 740.509045,262.27552 740.958071,262.370077 C742.74067,262.721288 744.205912,263.416955 745.316661,264.419933 C746.434161,265.42291 747.190415,266.783852 747.575294,268.259613 C747.946669,269.742128 747.912908,271.322577 747.528029,272.680142 C746.765022,275.469567 744.786608,277.093918 742.700157,277.421489 C740.576568,277.776077 738.584649,277.087164 737.345608,276.563724 C736.710895,276.300316 736.228107,276.053793 735.903998,275.878188 C734.884406,275.327732 734.290206,275.422289 733.922208,275.837663 C733.496815,276.320578 733.544081,277.060147 734.026868,277.485653 C734.796626,278.164436 735.265909,278.559548 735.924255,279.035709 C736.579225,279.515247 737.436763,280.069079 738.561016,280.57901 C739.688645,281.072056 741.096493,281.568479 742.84533,281.652905 C744.567159,281.747462 746.656986,281.382743 748.567878,280.248062 C750.47877,279.126888 752.153332,277.333687 753.284337,275.128488 C754.428847,272.926666 755.077065,270.299338 754.992661,267.455881 C754.945395,264.639439 754.023711,261.529197 752.062177,258.861345 Z M615.253947,327.594951 C610.042147,330.136915 604.44432,329.18912 604.063663,328.602409 C603.683006,328.015698 606.535178,322.946563 611.746978,320.404598 C616.958778,317.862633 622.606481,318.666328 622.937262,319.39714 C623.268043,320.127952 620.465748,325.052986 615.253947,327.594951 Z M576.746053,327.594951 C581.957853,330.136915 587.55568,329.18912 587.936337,328.602409 C588.316994,328.015698 585.464822,322.946563 580.253022,320.404598 C575.041222,317.862633 569.393519,318.666328 569.062738,319.39714 C568.731957,320.127952 571.534252,325.052986 576.746053,327.594951 Z" id="octopus"></path>
        </g>
    </g>
</svg>