<?xml version="1.0" encoding="UTF-8"?>
<svg width="25px" height="29px" viewBox="0 0 25 29" version="1.1" xmlns="http://www.w3.org/2000/svg" xmlns:xlink="http://www.w3.org/1999/xlink">
    <!-- Generator: Sketch 52.6 (67491) - http://www.bohemiancoding.com/sketch -->
    <title>pdf</title>
    <desc>Created with Sketch.</desc>
    <defs>
        <path d="M4.105,21.565 L4.105,24 L2.415,24 L2.415,16.715 L4.985,16.715 C5.4983359,16.715 5.93916482,16.7758327 6.3075,16.8975 C6.67583517,17.0191673 6.97916547,17.1866656 7.2175,17.4 C7.45583452,17.6133344 7.6316661,17.8649985 7.745,18.155 C7.8583339,18.4450014 7.915,18.7583316 7.915,19.095 C7.915,19.4583351 7.85666725,19.7916652 7.74,20.095 C7.62333275,20.3983348 7.4450012,20.6583323 7.205,20.875 C6.9649988,21.0916677 6.66083517,21.2608327 6.2925,21.3825 C5.92416483,21.5041673 5.48833585,21.565 4.985,21.565 L4.105,21.565 Z M4.105,20.29 L4.985,20.29 C5.4250022,20.29 5.7416657,20.1850011 5.935,19.975 C6.1283343,19.7649989 6.225,19.4716686 6.225,19.095 C6.225,18.9283325 6.20000025,18.7766674 6.15,18.64 C6.09999975,18.5033327 6.02416717,18.3858338 5.9225,18.2875 C5.82083283,18.1891662 5.69250078,18.1133336 5.5375,18.06 C5.38249923,18.0066664 5.1983344,17.98 4.985,17.98 L4.105,17.98 L4.105,20.29 Z M15.405,20.355 C15.405,20.8816693 15.3141676,21.3674978 15.1325,21.8125 C14.9508324,22.2575022 14.6950016,22.6424984 14.365,22.9675 C14.0349983,23.2925016 13.6375023,23.5458324 13.1725,23.7275 C12.7074977,23.9091676 12.1916695,24 11.625,24 L8.795,24 L8.795,16.715 L11.625,16.715 C12.1916695,16.715 12.7074977,16.8066658 13.1725,16.99 C13.6375023,17.1733342 14.0349983,17.4266651 14.365,17.75 C14.6950016,18.0733349 14.9508324,18.4574978 15.1325,18.9025 C15.3141676,19.3475022 15.405,19.8316641 15.405,20.355 Z M13.675,20.355 C13.675,19.9949982 13.6283338,19.6700015 13.535,19.38 C13.4416662,19.0899986 13.3075009,18.8441677 13.1325,18.6425 C12.9574991,18.4408323 12.7433346,18.2858339 12.49,18.1775 C12.2366654,18.0691661 11.9483349,18.015 11.625,18.015 L10.495,18.015 L10.495,22.7 L11.625,22.7 C11.9483349,22.7 12.2366654,22.6458339 12.49,22.5375 C12.7433346,22.4291661 12.9574991,22.2741677 13.1325,22.0725 C13.3075009,21.8708323 13.4416662,21.6250014 13.535,21.335 C13.6283338,21.0449986 13.675,20.7183352 13.675,20.355 Z M20.905,16.715 L20.905,18.015 L17.915,18.015 L17.915,19.86 L20.405,19.86 L20.405,21.165 L17.915,21.165 L17.915,24 L16.215,24 L16.215,16.715 L20.905,16.715 Z" id="path-1"></path>
    </defs>
    <g id="Page-1" stroke="none" stroke-width="1" fill="none" fill-rule="evenodd">
        <g id="pdf" transform="translate(1.000000, 0.000000)">
            <path d="M0,1 L16.1077189,1 L16.1077189,7.9898065 L23,7.9898065 L23,28 L0,28 L0,1 Z M16.2867771,0.94612798 L23.0917465,7.85409452 L16.2867771,0.94612798 Z" id="Combined-Shape" stroke="#000000"></path>
            <g id="PDF" fill="#000000">
                <use xlink:href="#path-1"></use>
                <use xlink:href="#path-1"></use>
            </g>
        </g>
    </g>
</svg>