<?xml version="1.0" encoding="UTF-8"?>
<svg width="26px" height="18px" viewBox="0 0 26 18" version="1.1" xmlns="http://www.w3.org/2000/svg" xmlns:xlink="http://www.w3.org/1999/xlink">
    <g id="quote" stroke="none" stroke-width="1" fill="none" fill-rule="evenodd">
        <path d="M11.171875,14.09375 C10.9843741,14.3437513 10.5520867,14.6510398 9.875,15.015625 C9.19791328,15.3802102 8.45833734,15.7187484 7.65625,16.03125 C6.85416266,16.3437516 6.07812875,16.6041656 5.328125,16.8125 C4.57812125,17.0208344 4.01562687,17.1041669 3.640625,17.0625 C2.8072875,16.39583 2.18229375,15.6510458 1.765625,14.828125 C1.34895625,14.0052042 1.140625,12.9583397 1.140625,11.6875 C1.140625,10.7708287 1.30208172,9.80208844 1.625,8.78125 C1.94791828,7.76041156 2.40624703,6.75521328 3,5.765625 C3.59375297,4.77603672 4.3072875,3.84375437 5.140625,2.96875 C5.9739625,2.09374563 6.89062,1.33333656 7.890625,0.6875 L9.453125,1.9375 C9.03645625,2.41666906 8.66146,2.93749719 8.328125,3.5 C7.99479,4.06250281 7.71875109,4.64583031 7.5,5.25 C7.28124891,5.85416969 7.11458391,6.45312203 7,7.046875 C6.88541609,7.64062797 6.828125,8.19791406 6.828125,8.71875 C6.828125,9.718755 7.14062188,10.5677048 7.765625,11.265625 C8.39062812,11.9635452 9.35936844,12.3333331 10.671875,12.375 L11.171875,14.09375 Z M24.984375,14.09375 C24.7968741,14.3437513 24.3645867,14.6510398 23.6875,15.015625 C23.0104133,15.3802102 22.2708373,15.7187484 21.46875,16.03125 C20.6666627,16.3437516 19.8906287,16.6041656 19.140625,16.8125 C18.3906213,17.0208344 17.8281269,17.1041669 17.453125,17.0625 C16.6406209,16.39583 16.0208355,15.6510458 15.59375,14.828125 C15.1666645,14.0052042 14.953125,12.9583397 14.953125,11.6875 C14.953125,10.7708287 15.1145817,9.80208844 15.4375,8.78125 C15.7604183,7.76041156 16.2135387,6.75521328 16.796875,5.765625 C17.3802113,4.77603672 18.0885375,3.84375437 18.921875,2.96875 C19.7552125,2.09374563 20.67187,1.33333656 21.671875,0.6875 L23.265625,1.9375 C22.8281228,2.41666906 22.4479183,2.93749719 22.125,3.5 C21.8020817,4.06250281 21.5312511,4.64583031 21.3125,5.25 C21.0937489,5.85416969 20.9270839,6.45312203 20.8125,7.046875 C20.6979161,7.64062797 20.640625,8.19791406 20.640625,8.71875 C20.640625,9.718755 20.9531219,10.5677048 21.578125,11.265625 C22.2031281,11.9635452 23.1614519,12.3333331 24.453125,12.375 L24.984375,14.09375 Z" id="“" fill="#2E9CCA"></path>
    </g>
</svg>
