<svg width="91px" height="71px" xmlns="http://www.w3.org/2000/svg" xmlns:xlink="http://www.w3.org/1999/xlink">
    <g fill="none" fill-rule="evenodd" stroke-linecap="round">
        <g transform="translate(-827.000000, -144.000000)" stroke="#7D7E93" stroke-width="1">
            <path d="M915.211157,181.361985 C915.211157,193.343115 890.663102,218.012488 877.101171,209.627068 C873.552785,207.43308 864.291911,201.132822 855.041652,186.364127 M855.041652,176.692065 C863.705462,162.188807 872.824929,155.393565 877.101171,152.823545 C890.303635,144.888867 915.211157,169.380854 915.211157,181.361985 M855.041652,186.364127 C846.741759,193.018991 842.591812,196.346423 842.591812,196.346423 C842.591812,196.346423 830.996488,206.390382 830.634231,203.791121 C833.556909,197.175342 836.688731,186.795362 836.688731,180.713759 C836.688731,174.632155 832.567069,162.290986 828,153.711963 C828.368978,151.02949 839.608874,158.833557 842.591812,163.086724 L855.041652,176.692065 M898.373785,180.004806 C900.240916,179.50451 901.001323,176.287951 900.072201,172.820422 C899.143079,169.352892 896.876268,166.947474 895.009137,167.44777 C893.142006,167.948067 892.381599,171.164625 893.31072,174.632155 C894.239842,178.099685 896.506653,180.505102 898.373785,180.004806 Z M913.488718,186.954593 L902.114081,191.863272 M877.775985,169.114509 C876.061314,176.036608 875.535382,180.687669 876.19819,183.067693 C876.860997,185.447716 879.975117,189.080855 885.540551,193.967108" id="round-fish" transform="translate(871.605579, 181.301613) scale(-1, 1) rotate(11.000000) translate(-871.605579, -181.301613) "></path>
        </g>
    </g>
</svg>
