<?xml version="1.0" encoding="UTF-8"?>
<svg width="88px" height="143px" viewBox="0 0 88 143" version="1.1" xmlns="http://www.w3.org/2000/svg" xmlns:xlink="http://www.w3.org/1999/xlink">
    <!-- Generator: Sketch 49.2 (51160) - http://www.bohemiancoding.com/sketch -->
    <title>sm-bubbles</title>
    <desc>Created with Sketch.</desc>
    <defs></defs>
    <g id="Page-1" stroke="none" stroke-width="1" fill="none" fill-rule="evenodd">
        <g id="Artboard" transform="translate(-22.000000, -52.000000)" stroke="#979797" stroke-width="2">
            <path d="M104,136 C104,128.268014 97.7319865,122 90,122 M89,156 C100.045695,156 109,147.045695 109,136 C109,124.954305 100.045695,116 89,116 C77.954305,116 69,124.954305 69,136 C69,147.045695 77.954305,156 89,156 Z M38,136 C46.2842712,136 53,129.284271 53,121 C53,112.715729 46.2842712,106 38,106 C29.7157288,106 23,112.715729 23,121 C23,129.284271 29.7157288,136 38,136 Z M96,194 C101.522847,194 106,189.522847 106,184 C106,178.477153 101.522847,174 96,174 C90.4771525,174 86,178.477153 86,184 C86,189.522847 90.4771525,194 96,194 Z M49.5,68 C53.6421356,68 57,64.6421356 57,60.5 C57,56.3578644 53.6421356,53 49.5,53 C45.3578644,53 42,56.3578644 42,60.5 C42,64.6421356 45.3578644,68 49.5,68 Z M74.5,108 C84.1649831,108 92,100.164983 92,90.5 C92,80.8350169 84.1649831,73 74.5,73 C64.8350169,73 57,80.8350169 57,90.5 C57,100.164983 64.8350169,108 74.5,108 Z" id="sm-bubbles"></path>
        </g>
    </g>
</svg>