<svg width="110px" height="51px" xmlns="http://www.w3.org/2000/svg" xmlns:xlink="http://www.w3.org/1999/xlink">
  <g fill="none" fill-rule="evenodd">
    <g transform="translate(-840.000000, -253.000000)" stroke="#979797" stroke-width="1">
      <path d="M947.374812,279.034793 C947.374812,268.626368 931.647274,259.345476 927.46653,259.345476 C914.467467,259.345476 861.719979,275.068174 860.691896,275.068174 C859.663813,275.068174 845.361715,251.999829 841.954735,258.093549 C838.547755,264.18727 845.354216,275.068174 845.354216,278.910399 C845.354216,282.752625 840.192879,289.581225 841.954735,297.022092 C843.716591,304.462959 858.648418,282.850097 860.835193,282.850097 C863.021969,282.850097 920.209287,300 929.685882,300 C935.243288,300 947.374812,289.443218 947.374812,279.034793 Z M906.08193,279.283087 C898.252345,284.72022 893.584629,286.751294 892.07878,285.37631 C890.572932,284.001325 890.572932,281.970251 892.07878,279.283087 M921.343759,259.683028 C908.568114,255.932144 900.139546,254.378093 896.058057,255.020876 C891.976568,255.663659 882.686745,261.712981 868.188588,273.168841 M934.410002,277.870451 C936.003344,277.870451 937.295002,276.13119 937.295002,273.985702 C937.295002,271.840215 936.003344,270.100954 934.410002,270.100954 C932.816661,270.100954 931.525002,271.840215 931.525002,273.985702 C931.525002,276.13119 932.816661,277.870451 934.410002,277.870451 Z M945.408399,285.907934 C933.373623,284.281883 927.838878,283.468857 928.804165,283.468857 C928.804165,283.468857 934.338909,284.281883 945.408399,285.907934 Z" id="sm-fish" transform="translate(894.187406, 277.439910) scale(-1, 1) rotate(-5.000000) translate(-894.187406, -277.439910) "></path>
    </g>
  </g>
</svg>
