<svg width="95px" height="44px" xmlns="http://www.w3.org/2000/svg" xmlns:xlink="http://www.w3.org/1999/xlink">
  <g fill="none" fill-rule="evenodd">
    <g transform="translate(-868.000000, -306.000000)" stroke="#7D7E93" stroke-width="1">
      <path d="M961.568046,329.822708 C961.568046,320.798377 947.984078,316.74344 944.359282,316.74344 C933.08881,316.74344 887.303437,326.383563 886.412067,326.383563 C885.520697,326.383563 871.053217,311.004164 870.16654,311.666193 C869.575421,312.107546 870.557896,318.123767 873.113964,329.714856 C870.689726,339.808045 869.707251,345.042455 870.16654,345.418089 C870.855472,345.981539 884.640327,333.13066 886.536309,333.13066 C888.432291,333.13066 938.555278,344.390224 946.771693,344.390224 C951.590085,344.390224 961.568046,338.84704 961.568046,329.822708 Z M935.417969,329.037985 C931.936563,331.979045 929.692423,333.740031 928.685547,334.320942 C925.001681,336.446325 921.551153,335.166444 920.62518,334.320942 C919.319577,333.1288 919.319577,331.367815 920.62518,329.037985 M950.78253,328.780869 C952.614454,329.103887 954.283778,328.320779 954.511068,327.03175 C954.738359,325.742721 953.437547,324.435898 951.605623,324.112881 C949.773699,323.789863 948.104375,324.57297 947.877085,325.862 C947.649794,327.151029 948.950606,328.457851 950.78253,328.780869 Z M937.170744,316.853395 C929.30479,310.765885 925.072661,307.955659 924.474355,308.422717 C923.87605,308.889776 924.291152,312.539802 925.719664,319.372796 M959.863122,335.781872 C949.428709,334.372049 944.629965,333.667138 945.466889,333.667138 C945.466889,333.667138 950.265634,334.372049 959.863122,335.781872 Z" id="xs-fish" transform="translate(915.784023, 326.904443) rotate(-4.000000) translate(-915.784023, -326.904443) "></path>
    </g>
  </g>
</svg>
